<svg xmlns="http://www.w3.org/2000/svg" xmlns:xlink="http://www.w3.org/1999/xlink" viewBox="0 0 427.8 341.917">
  <defs>
    <style>
      .cls-1 {
        fill: #9fe0ff;
      }

      .cls-10, .cls-12, .cls-13, .cls-14, .cls-15, .cls-2, .cls-23, .cls-3, .cls-38, .cls-39, .cls-4, .cls-46, .cls-47, .cls-48, .cls-49, .cls-5, .cls-52, .cls-53, .cls-6, .cls-9 {
        opacity: 0.2;
      }

      .cls-2 {
        fill: url(#linear-gradient);
      }

      .cls-3 {
        fill: url(#linear-gradient-2);
      }

      .cls-4 {
        fill: url(#linear-gradient-3);
      }

      .cls-5 {
        fill: url(#linear-gradient-4);
      }

      .cls-6 {
        fill: url(#linear-gradient-5);
      }

      .cls-28, .cls-7 {
        fill: #4c6ba7;
      }

      .cls-55, .cls-7 {
        opacity: 0.5;
      }

      .cls-8 {
        fill: #c5ecff;
      }

      .cls-9 {
        fill: url(#linear-gradient-6);
      }

      .cls-10 {
        fill: url(#linear-gradient-7);
      }

      .cls-11 {
        fill: #e8f7ff;
      }

      .cls-12 {
        fill: url(#linear-gradient-8);
      }

      .cls-13 {
        fill: url(#linear-gradient-9);
      }

      .cls-14 {
        fill: url(#linear-gradient-10);
      }

      .cls-15 {
        fill: url(#linear-gradient-11);
      }

      .cls-16 {
        fill: #ffad91;
      }

      .cls-17 {
        fill: #39507d;
      }

      .cls-18 {
        fill: #a8372c;
      }

      .cls-19 {
        fill: #7fc3e3;
      }

      .cls-20 {
        fill: #b03a2e;
      }

      .cls-21 {
        fill: #e84c3d;
      }

      .cls-22 {
        fill: #67463a;
      }

      .cls-23 {
        fill: url(#linear-gradient-12);
      }

      .cls-24 {
        fill: #dff5ff;
      }

      .cls-25, .cls-26, .cls-27, .cls-55, .cls-56 {
        fill: none;
        stroke-miterlimit: 10;
      }

      .cls-25 {
        stroke: #e84c3d;
      }

      .cls-26 {
        stroke: #33d9b2;
        stroke-width: 1.059px;
      }

      .cls-27 {
        stroke: #60ccff;
      }

      .cls-29 {
        fill: #d49337;
      }

      .cls-30 {
        fill: #f7f1e3;
      }

      .cls-31 {
        fill: #ffb142;
      }

      .cls-32 {
        fill: #e69c83;
      }

      .cls-33 {
        fill: #218c74;
      }

      .cls-34 {
        fill: #26a385;
      }

      .cls-35 {
        fill: #33d9b2;
      }

      .cls-36 {
        fill: #658edf;
      }

      .cls-37 {
        fill: #805749;
      }

      .cls-38 {
        fill: url(#linear-gradient-13);
      }

      .cls-39 {
        fill: url(#linear-gradient-14);
      }

      .cls-40 {
        fill: #0d352c;
      }

      .cls-41 {
        fill: #1a705d;
      }

      .cls-42 {
        fill: #0a2821;
      }

      .cls-43 {
        fill: #cd6133;
      }

      .cls-44 {
        fill: #bfb023;
      }

      .cls-45 {
        fill: #ffea2e;
      }

      .cls-46 {
        fill: url(#linear-gradient-15);
      }

      .cls-47 {
        fill: url(#linear-gradient-16);
      }

      .cls-48 {
        fill: url(#linear-gradient-17);
      }

      .cls-49 {
        fill: url(#linear-gradient-18);
      }

      .cls-50 {
        fill: #218f75;
      }

      .cls-51 {
        fill: #ffd08e;
      }

      .cls-52 {
        fill: url(#linear-gradient-19);
      }

      .cls-53 {
        fill: url(#linear-gradient-20);
      }

      .cls-54 {
        fill: #84a5e5;
      }

      .cls-55 {
        stroke: #adf0e0;
        stroke-width: 1.824px;
      }

      .cls-55, .cls-56 {
        stroke-linecap: round;
      }

      .cls-56 {
        stroke: #f7e041;
        stroke-linejoin: round;
        stroke-width: 1.8px;
      }
    </style>
    <linearGradient id="linear-gradient" x1="0.996" y1="-0.087" x2="0.163" y2="0.874" gradientUnits="objectBoundingBox">
      <stop offset="0" stop-color="#4c6ba7" stop-opacity="0"/>
      <stop offset="1" stop-color="#4c6ba7"/>
    </linearGradient>
    <linearGradient id="linear-gradient-2" x1="0.853" y1="0.027" x2="0.021" y2="0.684" xlink:href="#linear-gradient"/>
    <linearGradient id="linear-gradient-3" x1="0.85" y1="0.017" x2="0.02" y2="0.682" xlink:href="#linear-gradient"/>
    <linearGradient id="linear-gradient-4" x1="0.773" y1="0.032" x2="0.339" y2="0.523" xlink:href="#linear-gradient"/>
    <linearGradient id="linear-gradient-5" x1="0.773" y1="0.032" x2="0.339" y2="0.523" xlink:href="#linear-gradient"/>
    <linearGradient id="linear-gradient-6" x1="1.165" y1="-0.601" x2="0.16" y2="1.042" xlink:href="#linear-gradient"/>
    <linearGradient id="linear-gradient-7" x1="0.947" y1="0.089" x2="-0.126" y2="1.078" xlink:href="#linear-gradient"/>
    <linearGradient id="linear-gradient-8" x1="0.727" y1="-1.271" x2="0.089" y2="2.961" xlink:href="#linear-gradient"/>
    <linearGradient id="linear-gradient-9" x1="0.835" y1="-0.715" x2="0.168" y2="1.18" xlink:href="#linear-gradient"/>
    <linearGradient id="linear-gradient-10" x1="0.727" y1="-0.365" x2="0.056" y2="1.461" xlink:href="#linear-gradient"/>
    <linearGradient id="linear-gradient-11" x1="0.691" y1="-0.066" x2="0.112" y2="2.359" xlink:href="#linear-gradient"/>
    <linearGradient id="linear-gradient-12" y1="0.497" x2="0.999" y2="0.497" gradientUnits="objectBoundingBox">
      <stop offset="0" stop-color="#4c6ba7"/>
      <stop offset="1" stop-color="#4c6ba7" stop-opacity="0"/>
    </linearGradient>
    <linearGradient id="linear-gradient-13" x1="1.168" y1="-0.597" x2="0.159" y2="1.041" xlink:href="#linear-gradient"/>
    <linearGradient id="linear-gradient-14" x1="0.88" y1="-0.235" x2="0.089" y2="0.714" xlink:href="#linear-gradient"/>
    <linearGradient id="linear-gradient-15" x1="1.358" y1="0.105" x2="0.329" y2="1.04" xlink:href="#linear-gradient"/>
    <linearGradient id="linear-gradient-16" x1="0.925" y1="-0.392" x2="0.293" y2="0.976" xlink:href="#linear-gradient"/>
    <linearGradient id="linear-gradient-17" x1="0.866" y1="-0.436" x2="0.292" y2="1.267" xlink:href="#linear-gradient"/>
    <linearGradient id="linear-gradient-18" x1="0.864" y1="-0.439" x2="0.291" y2="1.264" xlink:href="#linear-gradient"/>
    <linearGradient id="linear-gradient-19" x1="-3.109" y1="0.105" x2="-4.138" y2="1.04" xlink:href="#linear-gradient"/>
    <linearGradient id="linear-gradient-20" x1="0" y1="0.501" x2="1" y2="0.501" xlink:href="#linear-gradient"/>
  </defs>
  <g id="Group_624" data-name="Group 624" transform="translate(0 -0.059)">
    <g id="Group_580" data-name="Group 580">
      <g id="Group_579" data-name="Group 579">
        <path id="Path_927" data-name="Path 927" class="cls-1" d="M106.4,81.9,18.7,132.5a5.531,5.531,0,0,1-8.3-4.8V63.5a14.028,14.028,0,0,1,7-12.1L105.1.8a5.531,5.531,0,0,1,8.3,4.8V69.9A13.78,13.78,0,0,1,106.4,81.9Z"/>
      </g>
    </g>
    <path id="Path_928" data-name="Path 928" class="cls-2" d="M28.9,192.6H44a24.4,24.4,0,0,0,12.3-3.3L186.6,114,156.7,96.7h-20Z"/>
    <path id="Path_929" data-name="Path 929" class="cls-3" d="M180.7,281.4h15.2a24.4,24.4,0,0,0,12.3-3.3l130.3-75.3L235.2,141.3h-20Z"/>
    <path id="Path_930" data-name="Path 930" class="cls-4" d="M291.9,340.7h15.2a24.4,24.4,0,0,0,12.3-3.3L427.8,274l-89.5-52.4h-20Z"/>
    <path id="Path_931" data-name="Path 931" class="cls-5" d="M111,317.5h15.2a24.4,24.4,0,0,0,12.3-3.3l27.4-15.9L88.6,257.1h-20Z"/>
    <path id="Path_932" data-name="Path 932" class="cls-6" d="M337.2,184.3h15.2a24.4,24.4,0,0,0,12.3-3.3l27.4-15.9-77.3-41.2h-20Z"/>
    <path id="Path_933" data-name="Path 933" class="cls-7" d="M83.9,228.7,171,280.4a17.834,17.834,0,0,0,18,.1l124.3-71.8a6.094,6.094,0,0,0,.1-10.5l-87.1-51.7a17.833,17.833,0,0,0-18-.1L84,218.2A6.094,6.094,0,0,0,83.9,228.7Z"/>
    <path id="Path_934" data-name="Path 934" class="cls-7" d="M3,181.5l16.9,9.8a17.7,17.7,0,0,0,17.8,0L162,119.5a6.1,6.1,0,0,0,0-10.6l-16.9-9.8a17.7,17.7,0,0,0-17.8,0L3,170.9A6.182,6.182,0,0,0,3,181.5Z"/>
    <path id="Path_935" data-name="Path 935" class="cls-8" d="M316.4,201.9h0v-6.3l-4.3.4-85.9-50.9a17.833,17.833,0,0,0-18-.1L86.5,215.3l-5.6.5v6.8h0a6.056,6.056,0,0,0,3,4.7L171,279a17.834,17.834,0,0,0,18,.1l124.3-71.8A6.115,6.115,0,0,0,316.4,201.9Z"/>
    <path id="Path_936" data-name="Path 936" class="cls-9" d="M316.4,201.9h0v-6.3l-4.3.4-85.9-50.9a17.833,17.833,0,0,0-18-.1L86.5,215.3l-5.6.5v6.8h0a6.056,6.056,0,0,0,3,4.7L171,279a17.834,17.834,0,0,0,18,.1l124.3-71.8A6.115,6.115,0,0,0,316.4,201.9Z"/>
    <path id="Path_937" data-name="Path 937" class="cls-8" d="M162,107.8l-16.8-9.7a17.7,17.7,0,0,0-17.8,0L14.9,163,0,168.6v6.5a6.068,6.068,0,0,0,3,5.3l16.9,9.8a17.7,17.7,0,0,0,17.8,0L162,118.4a6.027,6.027,0,0,0,3-5.2h0v-6.6Z"/>
    <path id="Path_938" data-name="Path 938" class="cls-10" d="M162,107.8l-16.8-9.7a17.7,17.7,0,0,0-17.8,0L14.9,163,0,168.6v6.5a6.068,6.068,0,0,0,3,5.3l16.9,9.8a17.7,17.7,0,0,0,17.8,0L162,118.4a6.027,6.027,0,0,0,3-5.2h0v-6.6Z"/>
    <path id="Path_939" data-name="Path 939" class="cls-11" d="M83.9,220.7,171,272.4a17.834,17.834,0,0,0,18,.1l124.3-71.8a6.094,6.094,0,0,0,.1-10.5l-87.1-51.7a17.833,17.833,0,0,0-18-.1L84,210.2A6.094,6.094,0,0,0,83.9,220.7Z"/>
    <path id="Path_940" data-name="Path 940" class="cls-12" d="M305.3,205.4H143l-15.3,8.8,21.2,10H272.8Z"/>
    <path id="Path_941" data-name="Path 941" class="cls-13" d="M192.6,235.3l-15.3,8.9,21.2,9.9h22.4l32.5-18.8Z"/>
    <path id="Path_942" data-name="Path 942" class="cls-14" d="M315.4,198.7H257.9l-15.1,8.8,21.2,9.9h20.3l29.1-16.8A4.592,4.592,0,0,0,315.4,198.7Z"/>
    <path id="Path_943" data-name="Path 943" class="cls-15" d="M274.7,167.2H209.4l-15,8.7,21.2,10h90.5Z"/>
    <g id="Group_586" data-name="Group 586">
      <path id="Path_944" data-name="Path 944" class="cls-16" d="M215.6,116.4s-2.2,7.7-1.4,9.2,3.1,1.4,3.1,1.4v1.9h5.9l-.3-10.1Z"/>
      <path id="Path_945" data-name="Path 945" class="cls-17" d="M191.7,170.4s-4.3-.7-5.6,0-.7,3,.9,3.4c1.6.5,7.2,2.4,8.3.9a8.231,8.231,0,0,0,1.1-4.1Z"/>
      <path id="Path_946" data-name="Path 946" class="cls-18" d="M213.8,150.3s-6.2-6.4-9.9-6.5c-3.7-.2-4.7,8.9-4.7,8.9l14.1,4.6Z"/>
      <g id="Group_581" data-name="Group 581">
        <path id="Path_947" data-name="Path 947" class="cls-19" d="M198.6,170.2a1.05,1.05,0,0,1-.9-.5.989.989,0,0,1,.4-1.4l12.9-7.4a1.03,1.03,0,0,1,1,1.8l-12.9,7.4A.749.749,0,0,1,198.6,170.2Z"/>
      </g>
      <path id="Path_948" data-name="Path 948" class="cls-19" d="M225.6,162.3l-10.9-6.4a6.318,6.318,0,0,0-6.5,0l-5,2.9a4.3,4.3,0,0,0-1,.9h-.5v1.7h0a2.813,2.813,0,0,0,1.6,2.6l12.9,7.3,12.6-7.3v-1.7Z"/>
      <path id="Path_949" data-name="Path 949" class="cls-8" d="M203.3,162.4l12.9,7.3,12.6-7.3-14-8.2a6.318,6.318,0,0,0-6.5,0l-5,2.9A3.017,3.017,0,0,0,203.3,162.4Z"/>
      <path id="Path_950" data-name="Path 950" class="cls-20" d="M226.5,153.9s-.4,5.7-2.1,7.3-8.6,4.9-11.8,4.3c-3.3-.5-14.8-5.8-14.8-5.8l-.5,12.6s-4.1,1.2-5.6-.4-.6-18.8.4-20.3c1.7-2.5,20.3,1.7,20.3,1.7Z"/>
      <path id="Path_951" data-name="Path 951" class="cls-21" d="M226.5,127.6s1.6,1,2.2,4.6a45.641,45.641,0,0,1,.6,6.7s-2,13.1-2.4,14.4c-.4,1.2-7.6,5.9-10.4,5.3s-5.3-4.4-5-5.9,2.1-9.3,1.8-12.1c-.2-2.8-.6-7.8,1-9.3a14.269,14.269,0,0,1,3.8-2.4Z"/>
      <path id="Path_952" data-name="Path 952" class="cls-8" d="M230.7,136.9l.3-.3-1.1-.5c-.2-.1-.3-.2-.5-.2-2.2-.7-3.2,3.3-6.6,4.6s-6.4,0-8.2,2.8c-1.8,2.7-1.7,9,.2,10h0l1.4.7.3-.3c2.3.2,5.8-.6,9.5-3,0,0,4-2.5,5-5.2C231.7,143.1,232,139,230.7,136.9Z"/>
      <path id="Path_953" data-name="Path 953" class="cls-1" d="M227.4,151.3s4-2.5,5-5.2c1-2.8,1.2-8.6-1.6-9.5-2.2-.7-3.2,3.3-6.6,4.6s-6.4,0-8.2,2.8c-1.9,2.8-1.7,9.4.3,10.1C218.4,154.7,222.8,154.2,227.4,151.3Z"/>
      <g id="Group_582" data-name="Group 582">
        <path id="Path_954" data-name="Path 954" class="cls-19" d="M216.1,186a1.11,1.11,0,0,1-1.1-1.1V169.5l4.3-19.1a1.079,1.079,0,0,1,2.1.5l-4.3,19V185A.942.942,0,0,1,216.1,186Z"/>
      </g>
      <g id="Group_583" data-name="Group 583">
        <path id="Path_955" data-name="Path 955" class="cls-19" d="M227.9,179.2a1.11,1.11,0,0,1-1.1-1.1V162.7l2.9-17.1a1.061,1.061,0,0,1,2.1.3l-2.9,17V178C228.9,178.7,228.5,179.2,227.9,179.2Z"/>
      </g>
      <g id="Group_584" data-name="Group 584">
        <path id="Path_956" data-name="Path 956" class="cls-19" d="M216.1,182a1.05,1.05,0,0,1-.9-.5.989.989,0,0,1,.4-1.4l11.7-6.8a1.03,1.03,0,1,1,1,1.8l-11.7,6.8A.749.749,0,0,1,216.1,182Z"/>
      </g>
      <g id="Group_585" data-name="Group 585">
        <path id="Path_957" data-name="Path 957" class="cls-19" d="M194.9,176.1a1.422,1.422,0,0,1-.6-.2,1.1,1.1,0,0,1-.3-1.5l7.5-12,1.9-9.9a1.555,1.555,0,0,1,.6-.8,1.7,1.7,0,0,1,1,0l13.6,7.8a1.03,1.03,0,0,1-1,1.8l-12.3-7.1-1.7,8.6c0,.1-.1.2-.1.4l-7.6,12.2C195.6,175.9,195.3,176.1,194.9,176.1Z"/>
      </g>
      <path id="Path_958" data-name="Path 958" class="cls-1" d="M208.3,152.8,205,151a1.6,1.6,0,0,0-1.5-.1l-.6-.3v1h0a1.086,1.086,0,0,0,.4.9l8.1,4.7a.908.908,0,0,0,1,0l1.2-.7c.1-.1.2-.2.2-.3v-1.1Z"/>
      <path id="Path_959" data-name="Path 959" class="cls-8" d="M213.6,155.4l-1.2.7a.908.908,0,0,1-1,0l-8.1-4.7a.936.936,0,0,1,0-1.6h0a1.718,1.718,0,0,1,1.7,0l8.6,5C213.8,154.9,213.8,155.2,213.6,155.4Z"/>
      <path id="Path_960" data-name="Path 960" class="cls-20" d="M215.8,130.7s4.3,2.4,1.4,7c-2.3,3.6-6.9,13.8-10.2,14.3-2.9.5-3.7-1.5-2.8-4.4S212.8,128.7,215.8,130.7Z"/>
      <path id="Path_961" data-name="Path 961" class="cls-20" d="M216.8,129.5a7.53,7.53,0,0,0,4,.5c2.4-.3,5.7-2.4,5.7-2.4v-1.4a44.058,44.058,0,0,1-5.7,1.4c-2.6.4-4,.5-4,.5L216,130Z"/>
      <path id="Path_962" data-name="Path 962" class="cls-22" d="M216.5,122.6l-.3-.6a29.718,29.718,0,0,0,.3-4c-.1-1-1.5-.7-1.5-2.3a5.638,5.638,0,0,1,7-4.6c4.6,1,6.6,4.9,6,9.2-.6,4.2-1,4.8-2.9,6.2-1.7,1.3-6.1.8-6.7-.1a3.462,3.462,0,0,1-.7-1.8,1.714,1.714,0,0,0,1.3-2C218.8,120.9,217.2,119.9,216.5,122.6Z"/>
      <path id="Path_963" data-name="Path 963" class="cls-20" d="M204.2,151l-5.7-13.3,4.4-2.4,5.4,11.4Z"/>
      <path id="Path_964" data-name="Path 964" class="cls-16" d="M202.9,135.3s.8-5.9-.7-6.5-1.7,1.8-1.7,1.8-1.2-2.9-3.2-3.1c-1.9-.2-3.4,2.4-2.6,5.1.7,2.7,3.8,5.1,3.8,5.1Z"/>
    </g>
    <path id="Path_965" data-name="Path 965" class="cls-11" d="M3,173.9l16.9,9.8a17.7,17.7,0,0,0,17.8,0L162,111.9a6.1,6.1,0,0,0,0-10.6l-16.9-9.8a17.7,17.7,0,0,0-17.8,0L3,163.4A6.094,6.094,0,0,0,3,173.9Z"/>
    <path id="Path_966" data-name="Path 966" class="cls-23" d="M126.2,109.8l-8.3,4.7,7.2,10h15.4L162.1,112a6.342,6.342,0,0,0,2.2-2.1H126.2Z"/>
    <g id="Group_588" data-name="Group 588">
      <g id="Group_587" data-name="Group 587">
        <path id="Path_967" data-name="Path 967" class="cls-24" d="M108.8,83.2,21.1,133.8a5.531,5.531,0,0,1-8.3-4.8V64.7a14.028,14.028,0,0,1,7-12.1L107.5,2a5.531,5.531,0,0,1,8.3,4.8V71.1A14.028,14.028,0,0,1,108.8,83.2Z"/>
      </g>
    </g>
    <path id="Path_968" data-name="Path 968" class="cls-25" d="M72.1,56.2V39.5l14.7,8.2Z"/>
    <path id="Path_969" data-name="Path 969" class="cls-26" d="M98.6,29.3c0,4.2-2.6,9.1-5.7,10.9-3.2,1.8-5.7-.1-5.7-4.3s2.6-9.1,5.7-10.9C96,23.1,98.6,25.1,98.6,29.3Z"/>
    <line id="Line_23" data-name="Line 23" class="cls-27" y1="15.2" x2="26.3" transform="translate(27 54.7)"/>
    <line id="Line_24" data-name="Line 24" class="cls-27" y1="15.1" x2="26.3" transform="translate(27 67.7)"/>
    <line id="Line_25" data-name="Line 25" class="cls-27" y1="15.1" x2="26.3" transform="translate(27 80.6)"/>
    <line id="Line_26" data-name="Line 26" class="cls-27" y1="15.1" x2="26.3" transform="translate(27 93.5)"/>
    <line id="Line_27" data-name="Line 27" class="cls-27" y1="15.2" x2="26.3" transform="translate(74 54.7)"/>
    <line id="Line_28" data-name="Line 28" class="cls-27" y1="15.2" x2="26.3" transform="translate(74 67.6)"/>
    <g id="Group_589" data-name="Group 589">
      <path id="Path_970" data-name="Path 970" class="cls-17" d="M129,112.9s3.6,5,3.4,6.4-2.6,1.1-5.4,0c-2.7-1.2-4.4-2-4.8-3a4.709,4.709,0,0,1-.2-2.2Z"/>
      <path id="Path_971" data-name="Path 971" class="cls-17" d="M122.8,117s3.6,5,3.4,6.4-2.6,1.1-5.4,0c-2.7-1.2-4.4-2-4.8-3a4.709,4.709,0,0,1-.2-2.2Z"/>
      <path id="Path_972" data-name="Path 972" class="cls-28" d="M114,87.3l1.9,31s.7.8,3.1.5a6.682,6.682,0,0,0,3.8-1.8l.2-2.8a9.006,9.006,0,0,0,3.2.4,5.492,5.492,0,0,0,3.1-1.3l.4-31.2-1.1-4.5-13.8,4.5Z"/>
      <path id="Path_973" data-name="Path 973" class="cls-29" d="M126.1,55.5s2.5.9,3.3,5.4a24.829,24.829,0,0,1,.3,8.1l6.7-.4.9,4.3a.783.783,0,0,1-.7,1c-2.4.2-8.7.8-9.9-.1C125.1,72.8,123.1,52.9,126.1,55.5Z"/>
      <path id="Path_974" data-name="Path 974" class="cls-30" d="M118.7,57.5,125,57s2.8,8,3,10.9c.2,2.8,0,11,0,11l-6.6,3.8Z"/>
      <path id="Path_975" data-name="Path 975" class="cls-31" d="M125,54.6a6.315,6.315,0,0,1,3.5,3.5,23.873,23.873,0,0,1,1.4,9.5c-.1,1.9-.4,4.6-.6,6.2a7.017,7.017,0,0,0,.1,2.5l.9,6.1-3.2,3.1s-.6-21.3-1-23.8a7.336,7.336,0,0,0-2.1-4.1V56Z"/>
      <path id="Path_976" data-name="Path 976" class="cls-22" d="M127.1,50.4a3.49,3.49,0,0,0,2.1-.8,2.478,2.478,0,0,0,.9-1.7s1-.1,1.2-1.9a2.181,2.181,0,0,0-1.1-2.3s1.4-1.7.3-2.8c-.8-.8-1.4-.4-1.4-.4a2.555,2.555,0,0,0-1.7-2.5,4.257,4.257,0,0,0-3,0s-.7-1.4-3-1.2-2.3,1.2-2.3,1.2-2.8-.4-4.1.8-1.3,2.1-1.3,2.1a4.088,4.088,0,0,0-2.1,6,2.07,2.07,0,0,0-.5,1.4,1.3,1.3,0,0,0,.6,1.2,2.318,2.318,0,0,0-.1,2,3.4,3.4,0,0,0,1.7,1.3,3.982,3.982,0,0,0,1.5,2.3,2.11,2.11,0,0,0,2.2.2s.8,1.5,2.2,1.2C120.6,56.4,127.1,50.4,127.1,50.4Z"/>
      <path id="Path_977" data-name="Path 977" class="cls-32" d="M124.1,56v2.6l-.6,1.1h-3.3l-1.5-2.2V50.8l2.7-1.2Z"/>
      <path id="Path_978" data-name="Path 978" class="cls-16" d="M126.6,50.6s.2,3.2-.9,4.7-2,1.4-3.4,1.2a3.874,3.874,0,0,1-3-2.5c-.8-1.6-.8-6.4.5-8.1s6.6-4.2,6.7-1.2C126.7,47.7,126.6,50.6,126.6,50.6Z"/>
      <path id="Path_979" data-name="Path 979" class="cls-16" d="M118.9,49.6a1.7,1.7,0,0,0-1.3,1.4c-.1.8.3,2.2,1.4,1.6C120.1,52.1,118.9,49.6,118.9,49.6Z"/>
      <path id="Path_980" data-name="Path 980" class="cls-31" d="M118.7,57.5s3.1,3.4,3.5,6.9.5,24,.5,24a17.988,17.988,0,0,1-4.7,1.2c-2,.2-4.6-1.6-4.6-1.6a71.352,71.352,0,0,0,.5-9.2c-.1-5.5-1-11.1-1-13C113,62.4,114.8,59.8,118.7,57.5Z"/>
      <path id="Path_981" data-name="Path 981" class="cls-29" d="M115.1,61.9s2.1-1,3.1,5.6a49.3,49.3,0,0,1,.6,8l4.5-5.6,1.2,3.7a1.939,1.939,0,0,1-.3,1.8c-1.6,2.2-5.8,7.8-7.8,6.5C114.8,80.9,111.5,63.1,115.1,61.9Z"/>
      <path id="Path_982" data-name="Path 982" class="cls-16" d="M123.2,69.5s0-2.8.7-3.7,2-2.7,2.4-2c.3.5-1.1,2.2-1.1,2.2a2.051,2.051,0,0,1,1.2.5,4.583,4.583,0,0,1,1,3.6c-.3,1.6-3.1,4.2-3.1,4.2A3.719,3.719,0,0,1,123.2,69.5Z"/>
      <path id="Path_983" data-name="Path 983" class="cls-16" d="M136,68.4s1-2.4,1.8-2.2.2,1.4.2,1.4,2.8-1.1,4-.8c1.1.4.8,3.3-.5,4.7s-4.5,1.7-4.5,1.7A3.874,3.874,0,0,1,136,68.4Z"/>
    </g>
    <g id="Group_596" data-name="Group 596">
      <path id="Path_984" data-name="Path 984" class="cls-1" d="M261.3,169.2a2.55,2.55,0,0,0-2.4,0l-5.6,3.2c-.1,0-.1.1-.2.1l-.5-.2v1.2a1.306,1.306,0,0,0,.7,1.2l6.2,3.6a2.618,2.618,0,0,0,2.7,0l4.7-2.7,3.4,2,2.9-1.6Z"/>
      <path id="Path_985" data-name="Path 985" class="cls-8" d="M273,174.7l-11.7-6.8a2.55,2.55,0,0,0-2.4,0l-5.6,3.2a1.317,1.317,0,0,0,0,2.3l6.2,3.6a2.618,2.618,0,0,0,2.7,0l4.7-2.7,3.4,2Z"/>
      <g id="Group_590" data-name="Group 590">
        <path id="Path_986" data-name="Path 986" class="cls-19" d="M246.5,201.7a1.05,1.05,0,0,1-.9-.5.989.989,0,0,1,.4-1.4l12.9-7.4a1.03,1.03,0,0,1,1,1.8L247,201.6A.749.749,0,0,1,246.5,201.7Z"/>
      </g>
      <g id="Group_591" data-name="Group 591">
        <path id="Path_987" data-name="Path 987" class="cls-19" d="M260,197.5h-.2a.946.946,0,0,1-.8-1.2l1.1-6,2-10.1a1.555,1.555,0,0,1,.6-.8,1.7,1.7,0,0,1,1,0l13.6,7.8a1.03,1.03,0,0,1-1,1.8L264,181.9l-1.7,8.6-1.1,5.9C260.9,197.2,260.5,197.5,260,197.5Z"/>
      </g>
      <path id="Path_988" data-name="Path 988" class="cls-19" d="M273.5,193.8l-10.9-6.4a6.318,6.318,0,0,0-6.5,0l-5,2.9a4.3,4.3,0,0,0-1,.9h-.5v1.7h0a2.813,2.813,0,0,0,1.6,2.6l12.9,7.3,12.6-7.3v-1.7Z"/>
      <path id="Path_989" data-name="Path 989" class="cls-8" d="M251.2,193.9l12.9,7.3,12.6-7.3-14-8.2a6.318,6.318,0,0,0-6.5,0l-5,2.9A3.017,3.017,0,0,0,251.2,193.9Z"/>
      <path id="Path_990" data-name="Path 990" class="cls-8" d="M278.6,168.4l.3-.3-1.1-.5c-.2-.1-.3-.2-.5-.2-2.2-.7-3.2,3.3-6.6,4.6s-6.4,0-8.2,2.8c-1.8,2.7-1.7,9,.2,10h0l1.4.7.3-.3c2.3.2,5.8-.6,9.5-3,0,0,4-2.5,5-5.2C279.6,174.6,279.9,170.5,278.6,168.4Z"/>
      <path id="Path_991" data-name="Path 991" class="cls-1" d="M275.3,182.8s4-2.5,5-5.2c1-2.8,1.2-8.6-1.6-9.5-2.2-.7-3.2,3.3-6.6,4.6s-6.4,0-8.2,2.8c-1.9,2.8-1.7,9.4.3,10.1C266.3,186.2,270.7,185.7,275.3,182.8Z"/>
      <g id="Group_592" data-name="Group 592">
        <path id="Path_992" data-name="Path 992" class="cls-19" d="M264,217.5a1.11,1.11,0,0,1-1.1-1.1V201l4.3-19.1a1.079,1.079,0,1,1,2.1.5l-4.3,19v15.1A.942.942,0,0,1,264,217.5Z"/>
      </g>
      <g id="Group_593" data-name="Group 593">
        <path id="Path_993" data-name="Path 993" class="cls-19" d="M275.8,210.7a1.11,1.11,0,0,1-1.1-1.1V194.2l2.9-17.1a1.061,1.061,0,0,1,2.1.3l-2.9,17v15.1C276.8,210.2,276.4,210.7,275.8,210.7Z"/>
      </g>
      <g id="Group_594" data-name="Group 594">
        <path id="Path_994" data-name="Path 994" class="cls-19" d="M264,213.5a1.05,1.05,0,0,1-.9-.5.989.989,0,0,1,.4-1.4l11.7-6.8a1.03,1.03,0,1,1,1,1.8l-11.7,6.8A.749.749,0,0,1,264,213.5Z"/>
      </g>
      <g id="Group_595" data-name="Group 595">
        <path id="Path_995" data-name="Path 995" class="cls-19" d="M242.8,207.6a1.422,1.422,0,0,1-.6-.2,1.1,1.1,0,0,1-.3-1.5l7.5-12,1.9-9.9a1.555,1.555,0,0,1,.6-.8,1.7,1.7,0,0,1,1,0l13.6,7.8a1.03,1.03,0,1,1-1,1.8l-12.3-7.1-1.7,8.6c0,.1-.1.2-.1.4l-7.6,12.2C243.5,207.4,243.2,207.6,242.8,207.6Z"/>
      </g>
      <path id="Path_996" data-name="Path 996" class="cls-1" d="M256.2,184.3l-3.2-1.9a1.6,1.6,0,0,0-1.5-.1l-.6-.3v1h0a1.086,1.086,0,0,0,.4.9l8.1,4.7a.908.908,0,0,0,1,0l1.2-.7c.1-.1.2-.2.2-.3v-1.1Z"/>
      <path id="Path_997" data-name="Path 997" class="cls-8" d="M261.5,186.9l-1.2.7a.908.908,0,0,1-1,0l-8.1-4.7a.936.936,0,0,1,0-1.6h0a1.718,1.718,0,0,1,1.7,0l8.6,5A.375.375,0,0,1,261.5,186.9Z"/>
    </g>
    <g id="Group_607" data-name="Group 607">
      <path id="Path_998" data-name="Path 998" class="cls-16" d="M197.1,183.9s-.8,8.5,0,10,3.1,1.4,3.1,1.4v1.9h4l1.7-10.1Z"/>
      <path id="Path_999" data-name="Path 999" class="cls-17" d="M174.6,238.7s-4.3-.7-5.6,0-.7,3,.9,3.4c1.6.5,7.2,2.4,8.3.9a8.231,8.231,0,0,0,1.1-4.1Z"/>
      <path id="Path_1000" data-name="Path 1000" class="cls-33" d="M196.7,218.6s-6.2-6.4-9.9-6.5c-3.7-.2-4.7,8.9-4.7,8.9l14.1,4.6Z"/>
      <g id="Group_598" data-name="Group 598">
        <g id="Group_597" data-name="Group 597">
          <path id="Path_1001" data-name="Path 1001" class="cls-19" d="M181.5,238.5a1.05,1.05,0,0,1-.9-.5.989.989,0,0,1,.4-1.4l12.9-7.4a1.03,1.03,0,1,1,1,1.8L182,238.4A4.331,4.331,0,0,0,181.5,238.5Z"/>
        </g>
      </g>
      <path id="Path_1002" data-name="Path 1002" class="cls-19" d="M208.5,230.6l-10.9-6.4a6.318,6.318,0,0,0-6.5,0l-5,2.9a4.3,4.3,0,0,0-1,.9h-.5v1.7h0a2.813,2.813,0,0,0,1.6,2.6l12.9,7.3,12.6-7.3v-1.7Z"/>
      <path id="Path_1003" data-name="Path 1003" class="cls-1" d="M186.1,230.7,199,238l12.6-7.3-14-8.2a6.318,6.318,0,0,0-6.5,0l-5,2.9A3.052,3.052,0,0,0,186.1,230.7Z"/>
      <path id="Path_1004" data-name="Path 1004" class="cls-34" d="M209.4,222.1s-.4,5.7-2.1,7.3-8.6,4.9-11.8,4.3c-3.3-.5-14.8-5.8-14.8-5.8l-.5,12.6s-4.1,1.2-5.6-.4-.6-18.8.4-20.3c1.7-2.5,20.3,1.7,20.3,1.7Z"/>
      <path id="Path_1005" data-name="Path 1005" class="cls-35" d="M209.4,195.9s1.6,1,2.2,4.6a45.641,45.641,0,0,1,.6,6.7s-2,13.1-2.4,14.4c-.4,1.2-7.6,5.9-10.4,5.3s-5.3-4.4-5-5.9,2.1-9.3,1.8-12.1c-.2-2.8-.6-7.8,1-9.3a14.269,14.269,0,0,1,3.8-2.4Z"/>
      <path id="Path_1006" data-name="Path 1006" class="cls-8" d="M213.6,205.2l.3-.3-1.1-.5c-.2-.1-.3-.2-.5-.2-2.2-.7-3.2,3.3-6.6,4.6s-6.4,0-8.2,2.8c-1.8,2.7-1.7,9,.2,10h0l1.4.7.3-.3c2.3.2,5.8-.6,9.5-3,0,0,4-2.5,5-5.2C214.6,211.4,214.9,207.3,213.6,205.2Z"/>
      <path id="Path_1007" data-name="Path 1007" class="cls-1" d="M210.2,219.6s4-2.5,5-5.2c1-2.8,1.2-8.6-1.6-9.5-2.2-.7-3.2,3.3-6.6,4.6s-6.4,0-8.2,2.8c-1.9,2.8-1.7,9.4.3,10.1C201.3,223,205.7,222.5,210.2,219.6Z"/>
      <g id="Group_600" data-name="Group 600">
        <g id="Group_599" data-name="Group 599">
          <path id="Path_1008" data-name="Path 1008" class="cls-19" d="M199,254.3a1.11,1.11,0,0,1-1.1-1.1V237.8l4.3-19.1a1.079,1.079,0,0,1,2.1.5l-4.3,19v15.1A.942.942,0,0,1,199,254.3Z"/>
        </g>
      </g>
      <g id="Group_602" data-name="Group 602">
        <g id="Group_601" data-name="Group 601">
          <path id="Path_1009" data-name="Path 1009" class="cls-19" d="M210.7,247.5a1.11,1.11,0,0,1-1.1-1.1V231l2.9-17.1a1.061,1.061,0,1,1,2.1.3l-2.9,17v15.1A1.009,1.009,0,0,1,210.7,247.5Z"/>
        </g>
      </g>
      <g id="Group_604" data-name="Group 604">
        <g id="Group_603" data-name="Group 603">
          <path id="Path_1010" data-name="Path 1010" class="cls-19" d="M199,250.3a1.05,1.05,0,0,1-.9-.5.989.989,0,0,1,.4-1.4l11.7-6.8a1.03,1.03,0,0,1,1,1.8l-11.7,6.8A4.331,4.331,0,0,1,199,250.3Z"/>
        </g>
      </g>
      <g id="Group_606" data-name="Group 606">
        <g id="Group_605" data-name="Group 605">
          <path id="Path_1011" data-name="Path 1011" class="cls-19" d="M177.8,244.3a1.422,1.422,0,0,1-.6-.2,1.1,1.1,0,0,1-.3-1.5l7.5-12,1.9-9.9a1.555,1.555,0,0,1,.6-.8,1.7,1.7,0,0,1,1,0l13.6,7.8a1.03,1.03,0,0,1-1,1.8l-12.3-7.1-1.7,8.6c0,.1-.1.2-.1.4l-7.6,12.2C178.5,244.1,178.2,244.3,177.8,244.3Z"/>
        </g>
      </g>
      <path id="Path_1012" data-name="Path 1012" class="cls-1" d="M191.2,221.1l-3.2-1.9a1.6,1.6,0,0,0-1.5-.1l-.6-.3v1h0a1.086,1.086,0,0,0,.4.9l8.1,4.7a.908.908,0,0,0,1,0l1.2-.7c.1-.1.2-.2.2-.3v-1.1Z"/>
      <path id="Path_1013" data-name="Path 1013" class="cls-8" d="M196.5,223.6l-1.2.7a.908.908,0,0,1-1,0l-8.1-4.7a.936.936,0,0,1,0-1.6h0a1.718,1.718,0,0,1,1.7,0l8.6,5C196.7,223.2,196.7,223.5,196.5,223.6Z"/>
      <path id="Path_1014" data-name="Path 1014" class="cls-34" d="M198.7,199s4.3,2.4,1.4,7c-2.3,3.6-6.9,13.8-10.2,14.3-2.9.5-3.7-1.5-2.8-4.4S195.6,197,198.7,199Z"/>
      <path id="Path_1015" data-name="Path 1015" class="cls-34" d="M199.7,197.8a7.53,7.53,0,0,0,4,.5c2.4-.3,5.7-2.4,5.7-2.4v-1.4a44.057,44.057,0,0,1-5.7,1.4c-2.6.4-4,.5-4,.5l-.8,1.8Z"/>
      <path id="Path_1016" data-name="Path 1016" class="cls-22" d="M200.7,190.8l-.9-.7s.3-3.6,0-4.2c-.3-.7-2.7-.5-3-2.8s2.5-5.2,3.9-5.5c1.5-.3.9.9.9.9a8.942,8.942,0,0,1,2.3-.5c.9,0,.3.7.3.7s1.8-.1,2-.1,0,.8,0,.8,3.9.9,5.4,2.8.1,8.5-.7,10.7-2,2.8-4.1,3.1a5.827,5.827,0,0,1-4.2-.9c-.9-.5-.9-2.3-.9-2.3a2.654,2.654,0,0,0,.5-2.2C201.9,189,201.1,188.1,200.7,190.8Z"/>
    </g>
    <g id="Group_613" data-name="Group 613">
      <path id="Path_1017" data-name="Path 1017" class="cls-16" d="M147,153.8s-.8,8.5,0,10,3.1,1.4,3.1,1.4v1.9h4l1.7-10.1Z"/>
      <path id="Path_1018" data-name="Path 1018" class="cls-28" d="M124.5,208.6s-4.3-.7-5.6,0-.7,3,.9,3.4c1.6.5,7.2,2.4,8.3.9a8.231,8.231,0,0,0,1.1-4.1Z"/>
      <path id="Path_1019" data-name="Path 1019" class="cls-32" d="M146.6,188.5s-7.9-2.8-11.6-2.9c-3.7-.2-4.1,6.9-4.1,6.9l15.2,3.1Z"/>
      <g id="Group_608" data-name="Group 608">
        <path id="Path_1020" data-name="Path 1020" class="cls-19" d="M131.4,208.4a1.05,1.05,0,0,1-.9-.5.989.989,0,0,1,.4-1.4l12.9-7.4a1.03,1.03,0,1,1,1,1.8l-12.9,7.4C131.7,208.3,131.6,208.4,131.4,208.4Z"/>
      </g>
      <path id="Path_1021" data-name="Path 1021" class="cls-19" d="M158.4,200.5l-10.9-6.4a6.318,6.318,0,0,0-6.5,0l-5,2.9a4.3,4.3,0,0,0-1,.9h-.5v1.7h0a2.813,2.813,0,0,0,1.6,2.6l12.9,7.3,12.6-7.3v-1.7Z"/>
      <path id="Path_1022" data-name="Path 1022" class="cls-8" d="M136,200.6l12.9,7.3,12.6-7.3-14-8.2a6.318,6.318,0,0,0-6.5,0l-5,2.9A3.052,3.052,0,0,0,136,200.6Z"/>
      <path id="Path_1023" data-name="Path 1023" class="cls-16" d="M159.3,192s-.4,5.7-2.1,7.3-8.6,4.9-11.8,4.3c-3.3-.5-12-7.7-12-7.7h0a16.141,16.141,0,0,1-1.6,8.1l-3.5,6.9s-2.3.9-3.8-.7,4.5-20.1,5.4-21.7c2.6-4.4,15.3,3.1,15.3,3.1Z"/>
      <path id="Path_1024" data-name="Path 1024" class="cls-28" d="M133.4,195.9s-2.8-6.7,0-8.9a5.044,5.044,0,0,1,5.3-.9l11,2.6,9.6,3.2s0,5.3-1.9,7.9-9,5.3-13.2,3.7C140,202,133.4,195.9,133.4,195.9Z"/>
      <path id="Path_1025" data-name="Path 1025" class="cls-36" d="M159.3,165.8s1.6,1,2.2,4.6a45.641,45.641,0,0,1,.6,6.7s-2,13.1-2.4,14.4c-.4,1.2-7.6,5.9-10.4,5.3s-5.3-4.4-5-5.9,2.1-9.3,1.8-12.1c-.2-2.8-.6-7.8,1-9.3a14.269,14.269,0,0,1,3.8-2.4Z"/>
      <path id="Path_1026" data-name="Path 1026" class="cls-8" d="M163.5,175.1l.3-.3-1.1-.5c-.2-.1-.3-.2-.5-.2-2.2-.7-3.2,3.3-6.6,4.6s-6.4,0-8.2,2.8c-1.8,2.7-1.7,9,.2,10h0l1.4.7.3-.3c2.3.2,5.8-.6,9.5-3,0,0,4-2.5,5-5.2C164.5,181.3,164.8,177.2,163.5,175.1Z"/>
      <path id="Path_1027" data-name="Path 1027" class="cls-1" d="M160.2,189.5s4-2.5,5-5.2c1-2.8,1.2-8.6-1.6-9.5-2.2-.7-3.2,3.3-6.6,4.6s-6.4,0-8.2,2.8c-1.9,2.8-1.7,9.4.3,10.1C151.2,192.9,155.6,192.4,160.2,189.5Z"/>
      <g id="Group_609" data-name="Group 609">
        <path id="Path_1028" data-name="Path 1028" class="cls-19" d="M148.9,224.2a1.11,1.11,0,0,1-1.1-1.1V207.7l4.3-19.1a1.079,1.079,0,1,1,2.1.5l-4.3,19v15.1A.942.942,0,0,1,148.9,224.2Z"/>
      </g>
      <g id="Group_610" data-name="Group 610">
        <path id="Path_1029" data-name="Path 1029" class="cls-19" d="M160.7,217.4a1.11,1.11,0,0,1-1.1-1.1V200.9l2.9-17.1a1.061,1.061,0,1,1,2.1.3l-2.9,17v15.1A1.126,1.126,0,0,1,160.7,217.4Z"/>
      </g>
      <g id="Group_611" data-name="Group 611">
        <path id="Path_1030" data-name="Path 1030" class="cls-19" d="M148.9,220.2a1.05,1.05,0,0,1-.9-.5.989.989,0,0,1,.4-1.4l11.7-6.8a1.03,1.03,0,0,1,1,1.8l-11.7,6.8A4.327,4.327,0,0,1,148.9,220.2Z"/>
      </g>
      <g id="Group_612" data-name="Group 612">
        <path id="Path_1031" data-name="Path 1031" class="cls-19" d="M127.7,214.2a1.421,1.421,0,0,1-.6-.2,1.1,1.1,0,0,1-.3-1.5l7.5-12,1.9-9.9a1.555,1.555,0,0,1,.6-.8,1.7,1.7,0,0,1,1,0l13.6,7.8a1.03,1.03,0,0,1-1,1.8l-12.3-7.1-1.7,8.6c0,.1-.1.2-.1.4l-7.6,12.2C128.4,214.1,128.1,214.2,127.7,214.2Z"/>
      </g>
      <path id="Path_1032" data-name="Path 1032" class="cls-1" d="M141.1,191l-3.2-1.9a1.6,1.6,0,0,0-1.5-.1l-.6-.3v1h0a1.086,1.086,0,0,0,.4.9l8.1,4.7a.908.908,0,0,0,1,0l1.2-.7c.1-.1.2-.2.2-.3v-1.1Z"/>
      <path id="Path_1033" data-name="Path 1033" class="cls-8" d="M146.4,193.5l-1.2.7a.908.908,0,0,1-1,0l-8.1-4.7a.936.936,0,0,1,0-1.6h0a1.718,1.718,0,0,1,1.7,0l8.6,5C146.6,193.1,146.6,193.4,146.4,193.5Z"/>
      <path id="Path_1034" data-name="Path 1034" class="cls-28" d="M148.6,168.9s4.3,2.4,1.4,7c-2.3,3.6-6.9,13.8-10.2,14.3-2.9.5-3.7-1.5-2.8-4.4S145.5,166.9,148.6,168.9Z"/>
      <path id="Path_1035" data-name="Path 1035" class="cls-28" d="M149.6,167.7a7.53,7.53,0,0,0,4,.5c2.4-.3,5.7-2.4,5.7-2.4v-1.4a44.057,44.057,0,0,1-5.7,1.4c-2.6.4-4,.5-4,.5l-.8,1.8Z"/>
      <path id="Path_1036" data-name="Path 1036" class="cls-37" d="M150.1,160.5s-3.5-2.4-4-5.7c-.6-3.3.1-4.6,1.5-5.5a6.462,6.462,0,0,1,3.4-.8,4.238,4.238,0,0,1,3.8-1.7c2.7,0,6,2.5,7.4,7.5s-2,10-4.4,11.5c-2.5,1.5-5.6-.5-6.1-2l-.5-1.4s1.1-.5.9-2.3S150.1,158.8,150.1,160.5Z"/>
      <path id="Path_1037" data-name="Path 1037" class="cls-22" d="M160.7,158.2s3.3.4,4.6,4.6-1.1,8-1.6,11.1c-.6,3.1.6,5.5.2,6.1s-5.5.5-7.1-6.6a22.318,22.318,0,0,1,1.1-13A2.5,2.5,0,0,1,160.7,158.2Z"/>
    </g>
    <g id="Group_616" data-name="Group 616">
      <g id="Group_614" data-name="Group 614">
        <path id="Path_1038" data-name="Path 1038" class="cls-7" d="M211.9,296.8l72.7,43.1a14.9,14.9,0,0,0,15,.1l103.7-59.9a5.109,5.109,0,0,0,.1-8.8l-72.7-44.2a14.9,14.9,0,0,0-15-.1L212,288A5.11,5.11,0,0,0,211.9,296.8Z"/>
        <path id="Path_1039" data-name="Path 1039" class="cls-8" d="M405.8,274.4h0v-6.3l-3.6.3L330.6,226a14.9,14.9,0,0,0-15-.1L214,284.5l-4.6.4v6.7h0a5.036,5.036,0,0,0,2.5,3.9l72.7,43.1a14.9,14.9,0,0,0,15,.1l103.7-59.9A4.624,4.624,0,0,0,405.8,274.4Z"/>
        <path id="Path_1040" data-name="Path 1040" class="cls-38" d="M405.8,274.4h0v-6.3l-3.6.3L330.6,226a14.9,14.9,0,0,0-15-.1L214,284.5l-4.6.4v6.7h0a5.036,5.036,0,0,0,2.5,3.9l72.7,43.1a14.9,14.9,0,0,0,15,.1l103.7-59.9A4.624,4.624,0,0,0,405.8,274.4Z"/>
        <path id="Path_1041" data-name="Path 1041" class="cls-11" d="M211.9,289.1l72.7,43.1a14.9,14.9,0,0,0,15,.1l103.7-59.9a5.109,5.109,0,0,0,.1-8.8l-72.7-43.1a14.9,14.9,0,0,0-15-.1L212,280.3A5.109,5.109,0,0,0,211.9,289.1Z"/>
        <path id="Path_1042" data-name="Path 1042" class="cls-39" d="M303,307.5h39.5l60.7-35.1a5.109,5.109,0,0,0,.1-8.8l-27.2-16.2H307.6Z"/>
      </g>
      <g id="Group_615" data-name="Group 615">
        <path id="Path_1043" data-name="Path 1043" class="cls-20" d="M363.3,262.4l-3.1.2a28.686,28.686,0,0,0-9.7-8.7c-19.1-11-52.4-9.6-74.5,3.1-6.9,4-11.9,8.6-14.9,13.4l-3.4.3v10.9h0c.1,6.9,4.3,13.5,12.9,18.4,19.1,11,52.4,9.6,74.5-3.1,12.3-7.1,18.5-16.3,18.2-24.9h0Z"/>
        <path id="Path_1044" data-name="Path 1044" class="cls-40" d="M275.9,246.4c-22,12.7-24.4,32-5.3,43s52.4,9.6,74.5-3.1c22-12.7,24.4-32,5.3-43S298,233.7,275.9,246.4Z"/>
        <path id="Path_1045" data-name="Path 1045" class="cls-41" d="M310.5,266.4l17.8-29.9a59.732,59.732,0,0,1,22.1,6.8,30.4,30.4,0,0,1,8.7,7.2Z"/>
        <path id="Path_1046" data-name="Path 1046" class="cls-42" d="M291.9,239.7a92.247,92.247,0,0,1,36.4-3.2l-17.8,29.9Z"/>
        <path id="Path_1047" data-name="Path 1047" class="cls-34" d="M291.9,225.4v14.3l18.6,26.7V252.1Z"/>
        <path id="Path_1048" data-name="Path 1048" class="cls-35" d="M291.9,225.4a92.247,92.247,0,0,1,36.4-3.2l-17.8,29.9Z"/>
        <path id="Path_1049" data-name="Path 1049" class="cls-21" d="M273.2,290.8a21.482,21.482,0,0,1-2.6-1.4c-19.1-11-16.7-30.3,5.3-43a76.254,76.254,0,0,1,16-6.8l18.6,26.7Z"/>
        <path id="Path_1050" data-name="Path 1050" class="cls-31" d="M310.5,246.8l17.8-29.9a59.732,59.732,0,0,1,22.1,6.8,30.4,30.4,0,0,1,8.7,7.2Z"/>
        <path id="Path_1051" data-name="Path 1051" class="cls-43" d="M310.5,246.7v8.8l48.6-15.8v-8.8Z"/>
        <path id="Path_1052" data-name="Path 1052" class="cls-28" d="M363.3,252.6l-1.8,4.2a19.948,19.948,0,0,0-2.4-3.8l-36.7,12-12-10.1V277l25.1,24.5a67.944,67.944,0,0,0,9.4-4.5c12.3-7.1,18.4-16.2,18.2-24.7h0V252.6Z"/>
        <path id="Path_1053" data-name="Path 1053" class="cls-44" d="M330.8,286.2l-20.4-19.8-30.2,19.8h-7.1v15.3c16.7,8.2,42.2,8,62.4,0V286.2Z"/>
        <path id="Path_1054" data-name="Path 1054" class="cls-36" d="M359.1,239.1c8.7,11,3.7,25.5-14,35.8a73.921,73.921,0,0,1-9.4,4.5l-25.1-24.5Z"/>
        <path id="Path_1055" data-name="Path 1055" class="cls-45" d="M273.2,286.1l37.3-24.4,25.1,24.5C315.4,294.1,289.9,294.3,273.2,286.1Z"/>
      </g>
    </g>
    <g id="Group_621" data-name="Group 621">
      <g id="Group_617" data-name="Group 617">
        <path id="Path_1056" data-name="Path 1056" class="cls-7" d="M137.8,306.4l-16.9,9.8a17.7,17.7,0,0,1-17.8,0L42.5,280.9a6.1,6.1,0,0,1,0-10.6l16.9-9.8a17.7,17.7,0,0,1,17.8,0l60.6,35.3A6.1,6.1,0,0,1,137.8,306.4Z"/>
        <path id="Path_1057" data-name="Path 1057" class="cls-8" d="M42.6,269.2l16.8-9.7a17.7,17.7,0,0,1,17.8,0l48.7,28.4,14.9,5.6V300a6.068,6.068,0,0,1-3,5.3l-16.9,9.8a17.7,17.7,0,0,1-17.8,0L42.5,279.8a6.027,6.027,0,0,1-3-5.2h0V268Z"/>
        <path id="Path_1058" data-name="Path 1058" class="cls-46" d="M42.6,269.2l16.8-9.7a17.7,17.7,0,0,1,17.8,0l48.7,28.4,14.9,5.6V300a6.068,6.068,0,0,1-3,5.3l-16.9,9.8a17.7,17.7,0,0,1-17.8,0L42.5,279.8a6.027,6.027,0,0,1-3-5.2h0V268Z"/>
        <path id="Path_1059" data-name="Path 1059" class="cls-11" d="M137.8,298.8l-16.9,9.8a17.7,17.7,0,0,1-17.8,0L42.5,273.3a6.1,6.1,0,0,1,0-10.6l16.9-9.8a17.7,17.7,0,0,1,17.8,0l60.6,35.3A6.1,6.1,0,0,1,137.8,298.8Z"/>
      </g>
      <path id="Path_1060" data-name="Path 1060" class="cls-47" d="M96.2,293.3l14.7,8.5h22l5-2.9a6.1,6.1,0,0,0,0-10.6l-1.6-1H106.6Z"/>
      <path id="Path_1061" data-name="Path 1061" class="cls-48" d="M136.4,287.5l-20.7-12.1h-30l-10.2,5.9,14.7,8.5h43.9Z"/>
      <path id="Path_1062" data-name="Path 1062" class="cls-49" d="M115.8,275.4,95,263.4H65l-10.2,5.9,14.6,8.5h44Z"/>
      <g id="Group_618" data-name="Group 618">
        <path id="Path_1063" data-name="Path 1063" class="cls-35" d="M54.8,217.2l12.7-7.4,14.7,8.5-12.8,7.3Z"/>
        <path id="Path_1064" data-name="Path 1064" class="cls-50" d="M54.8,217.2v52.1l14.6,8.5V225.6Z"/>
        <path id="Path_1065" data-name="Path 1065" class="cls-34" d="M69.4,277.8l12.8-7.4V218.3l-12.8,7.3Z"/>
      </g>
      <g id="Group_619" data-name="Group 619">
        <path id="Path_1066" data-name="Path 1066" class="cls-51" d="M75.5,244.2l12.7-7.3,14.7,8.4-12.7,7.4Z"/>
        <path id="Path_1067" data-name="Path 1067" class="cls-43" d="M75.5,244.2v37.1l14.7,8.4v-37Z"/>
        <path id="Path_1068" data-name="Path 1068" class="cls-31" d="M90.2,289.7l12.7-7.3V245.3l-12.7,7.4Z"/>
      </g>
      <g id="Group_620" data-name="Group 620">
        <path id="Path_1069" data-name="Path 1069" class="cls-21" d="M96.2,270.9l12.7-7.4,14.7,8.5-12.7,7.3Z"/>
        <path id="Path_1070" data-name="Path 1070" class="cls-18" d="M96.2,270.9v22.4l14.7,8.4V279.3Z"/>
        <path id="Path_1071" data-name="Path 1071" class="cls-20" d="M110.9,301.7l12.7-7.3V272l-12.7,7.3Z"/>
      </g>
    </g>
    <g id="Group_623" data-name="Group 623">
      <g id="Group_622" data-name="Group 622">
        <path id="Path_1072" data-name="Path 1072" class="cls-7" d="M364.1,173.2,347.2,183a17.7,17.7,0,0,1-17.8,0l-60.6-35.3a6.1,6.1,0,0,1,0-10.6l16.9-9.8a17.7,17.7,0,0,1,17.8,0l60.6,35.3A6.1,6.1,0,0,1,364.1,173.2Z"/>
        <path id="Path_1073" data-name="Path 1073" class="cls-8" d="M268.8,136l16.8-9.7a17.7,17.7,0,0,1,17.8,0l48.7,28.4,14.9,5.6v6.5a6.068,6.068,0,0,1-3,5.3l-16.9,9.8a17.7,17.7,0,0,1-17.8,0l-60.6-35.3a6.027,6.027,0,0,1-3-5.2h0v-6.6Z"/>
        <path id="Path_1074" data-name="Path 1074" class="cls-52" d="M268.8,136l16.8-9.7a17.7,17.7,0,0,1,17.8,0l48.7,28.4,14.9,5.6v6.5a6.068,6.068,0,0,1-3,5.3l-16.9,9.8a17.7,17.7,0,0,1-17.8,0l-60.6-35.3a6.027,6.027,0,0,1-3-5.2h0v-6.6Z"/>
        <path id="Path_1075" data-name="Path 1075" class="cls-11" d="M364.1,165.6l-16.9,9.8a17.7,17.7,0,0,1-17.8,0l-60.6-35.3a6.1,6.1,0,0,1,0-10.6l16.9-9.8a17.7,17.7,0,0,1,17.8,0L364.1,155A6.1,6.1,0,0,1,364.1,165.6Z"/>
      </g>
      <path id="Path_1076" data-name="Path 1076" class="cls-53" d="M343.3,171.6h10.4l10.4-6a6.1,6.1,0,0,0,0-10.6l-30.4-17.7-58.4-5Z"/>
      <path id="Path_1077" data-name="Path 1077" class="cls-54" d="M289.5,124.2V98.1s5-3.4,8.9-1.6c3.8,1.9,6.5,11.5,10.9,14.4,4.5,2.9,7.2-9.2,12-7.1s5.6,26.4,9.3,30.7c3.7,4.2,7.4-7.7,9.7-7.7,2.4,0,5.8,8.6,10.3,9.4a7.226,7.226,0,0,0,6.8-2v29.2Z"/>
      <path id="Path_1078" data-name="Path 1078" class="cls-54" d="M275.3,106.3l14.2-8.2s13.8,17.1,28.7,27.1c15,10,10.9,11.9,18,15.1s21.3,23.1,21.3,23.1l-14.2,8.2Z"/>
      <path id="Path_1079" data-name="Path 1079" class="cls-54" d="M304.1,112.5l14.4-8.3,1.6,7.7,5.4,20.5.7,2.6,13.6-8-5.7,16.9-12.7-3.5Z"/>
      <path id="Path_1080" data-name="Path 1080" class="cls-33" d="M275.3,132.4V106.3s5-3.4,8.9-1.6c3.8,1.9,6.5,11.5,10.9,14.4,4.5,2.9,7.2-9.2,12-7.1s5.6,26.4,9.3,30.7c3.7,4.2,7.4-7.7,9.7-7.7,2.4,0,5.8,8.6,10.3,9.4a7.226,7.226,0,0,0,6.8-2v29.2Z"/>
      <path id="Path_1081" data-name="Path 1081" class="cls-28" d="M275.3,132.4V106.3s5-3.4,8.9-1.6c3.8,1.9,6.5,11.5,10.9,14.4,4.5,2.9,7.2-9.2,12-7.1s5.6,26.4,9.3,30.7c3.7,4.2,7.4-7.7,9.7-7.7,2.4,0,5.8,8.6,10.3,9.4a7.226,7.226,0,0,0,6.8-2v29.2Z"/>
      <path id="Path_1082" data-name="Path 1082" class="cls-36" d="M343.3,142.4l14.2-8.2v29.3l-14.2,8.1Z"/>
      <line id="Line_29" data-name="Line 29" class="cls-55" y1="44.6" transform="translate(280.2 90.7)"/>
      <line id="Line_30" data-name="Line 30" class="cls-55" y1="44.6" transform="translate(299.6 102)"/>
      <line id="Line_31" data-name="Line 31" class="cls-55" y1="44.6" transform="translate(319 112.9)"/>
      <line id="Line_32" data-name="Line 32" class="cls-55" y1="44.6" transform="translate(338.5 124.2)"/>
      <path id="Path_1083" data-name="Path 1083" class="cls-56" d="M275.3,106.3s5-3.4,8.9-1.6c3.8,1.9,6.5,11.5,10.9,14.4,4.5,2.9,7.2-9.2,12-7.1s5.6,26.4,9.3,30.7c3.7,4.2,7.4-7.7,9.7-7.7,2.4,0,5.8,8.6,10.3,9.4a7.226,7.226,0,0,0,6.8-2"/>
    </g>
  </g>
</svg>
