<svg xmlns="http://www.w3.org/2000/svg" xmlns:xlink="http://www.w3.org/1999/xlink" viewBox="0 0 169.226 401.594">
  <defs>
    <style>
      .cls-1 {
        fill: #42e8e0;
      }

      .cls-16, .cls-2 {
        opacity: 0.5;
      }

      .cls-13, .cls-3, .cls-8 {
        opacity: 0.11;
      }

      .cls-4 {
        fill: url(#linear-gradient);
      }

      .cls-5 {
        fill: url(#linear-gradient-2);
      }

      .cls-6 {
        fill: url(#linear-gradient-3);
      }

      .cls-7 {
        fill: url(#linear-gradient-4);
      }

      .cls-8 {
        fill: url(#linear-gradient-5);
      }

      .cls-9 {
        fill: url(#linear-gradient-6);
      }

      .cls-10 {
        fill: url(#linear-gradient-7);
      }

      .cls-11 {
        fill: url(#linear-gradient-8);
      }

      .cls-12 {
        fill: url(#linear-gradient-9);
      }

      .cls-13 {
        fill: url(#linear-gradient-10);
      }

      .cls-14 {
        fill: url(#linear-gradient-11);
      }

      .cls-15 {
        fill: url(#linear-gradient-13);
      }

      .cls-16 {
        fill: url(#linear-gradient-15);
      }

      .cls-17 {
        fill: url(#linear-gradient-17);
      }

      .cls-18 {
        fill: #180d5b;
        opacity: 0.2;
      }

      .cls-19 {
        fill: #160a5b;
      }

      .cls-20 {
        fill: #24126a;
      }

      .cls-21 {
        fill: #453c9e;
      }

      .cls-22 {
        fill: url(#linear-gradient-18);
      }

      .cls-23 {
        fill: url(#linear-gradient-19);
      }

      .cls-24 {
        fill: #f0f6ff;
      }

      .cls-25 {
        fill: #fcd1c5;
      }

      .cls-26 {
        fill: #4846a5;
      }

      .cls-27 {
        fill: #aa8383;
      }

      .cls-28 {
        fill: #c4ccd6;
      }

      .cls-29 {
        fill: #e2b1a6;
      }

      .cls-30 {
        fill: url(#linear-gradient-20);
      }

      .cls-31 {
        fill: #936d6d;
      }
    </style>
    <linearGradient id="linear-gradient" y1="0.498" x2="0.999" y2="0.498" gradientUnits="objectBoundingBox">
      <stop offset="0" stop-color="#5761d7"/>
      <stop offset="0.073" stop-color="#5472d8"/>
      <stop offset="0.279" stop-color="#4e9cdb"/>
      <stop offset="0.48" stop-color="#49bddd"/>
      <stop offset="0.672" stop-color="#45d5df"/>
      <stop offset="0.849" stop-color="#43e3e0"/>
      <stop offset="1" stop-color="#42e8e0"/>
    </linearGradient>
    <linearGradient id="linear-gradient-2" x1="0" y1="0.499" x2="0.999" y2="0.499" xlink:href="#linear-gradient"/>
    <linearGradient id="linear-gradient-3" x1="0" y1="0.499" x2="0.999" y2="0.499" xlink:href="#linear-gradient"/>
    <linearGradient id="linear-gradient-4" x1="0" y1="0.5" x2="0.999" y2="0.5" xlink:href="#linear-gradient"/>
    <linearGradient id="linear-gradient-5" x1="-0.001" y1="0.499" x2="0.998" y2="0.499" xlink:href="#linear-gradient"/>
    <linearGradient id="linear-gradient-6" x1="0" y1="0.5" x2="1" y2="0.5" xlink:href="#linear-gradient"/>
    <linearGradient id="linear-gradient-7" x1="0" y1="0.5" x2="1" y2="0.5" xlink:href="#linear-gradient"/>
    <linearGradient id="linear-gradient-8" x1="0" y1="0.499" x2="1" y2="0.499" xlink:href="#linear-gradient"/>
    <linearGradient id="linear-gradient-9" x1="0" y1="0.499" x2="1" y2="0.499" xlink:href="#linear-gradient"/>
    <linearGradient id="linear-gradient-10" x1="0" y1="0.499" x2="1" y2="0.499" xlink:href="#linear-gradient"/>
    <linearGradient id="linear-gradient-11" x1="0" y1="0.5" x2="1" y2="0.5" xlink:href="#linear-gradient"/>
    <linearGradient id="linear-gradient-13" x1="0" y1="0.5" x2="1" y2="0.5" xlink:href="#linear-gradient"/>
    <linearGradient id="linear-gradient-15" x1="0" y1="0.5" x2="1" y2="0.5" xlink:href="#linear-gradient"/>
    <linearGradient id="linear-gradient-17" x1="0" y1="0.499" x2="1" y2="0.499" xlink:href="#linear-gradient"/>
    <linearGradient id="linear-gradient-18" x1="-1.966" y1="5.249" x2="-0.942" y2="5.249" xlink:href="#linear-gradient"/>
    <linearGradient id="linear-gradient-19" x1="-0.882" y1="2.87" x2="0.107" y2="2.87" xlink:href="#linear-gradient"/>
    <linearGradient id="linear-gradient-20" x1="-0.568" y1="1.3" x2="0.401" y2="1.3" xlink:href="#linear-gradient"/>
  </defs>
  <g id="Group_646" data-name="Group 646" transform="translate(0.025 0.043)">
    <g id="Group_626" data-name="Group 626" transform="translate(156.704 239.691)">
      <g id="Group_625" data-name="Group 625">
        <path id="Path_1084" data-name="Path 1084" class="cls-1" d="M143.876,220.024l-1.876,1.1V219.8l1.876-1.1Z" transform="translate(-142 -217.045)"/>
        <path id="Path_1085" data-name="Path 1085" class="cls-1" d="M143.876,228.514l-1.876,1.1V222l1.876-1.1Z" transform="translate(-142 -216.817)"/>
        <path id="Path_1086" data-name="Path 1086" class="cls-1" d="M143.876,231.78l-1.876,1.1V229.9l1.876-1.1Z" transform="translate(-142 -215.999)"/>
        <path id="Path_1087" data-name="Path 1087" class="cls-1" d="M143.876,235.68l-1.876,1.1V233.8l1.876-1.1Z" transform="translate(-142 -215.595)"/>
        <path id="Path_1088" data-name="Path 1088" class="cls-1" d="M146.476,222.38l-1.876,1.1V220.5l1.876-1.1Z" transform="translate(-141.731 -216.972)"/>
        <path id="Path_1089" data-name="Path 1089" class="cls-1" d="M146.476,227.714l-1.876,1.1V224.4l1.876-1.1Z" transform="translate(-141.731 -216.568)"/>
        <path id="Path_1090" data-name="Path 1090" class="cls-1" d="M146.476,232.452l-1.876,1.1V229.8l1.876-1.1Z" transform="translate(-141.731 -216.009)"/>
        <path id="Path_1091" data-name="Path 1091" class="cls-1" d="M143.876,239.58l-1.876,1.1V237.7l1.876-1.1Z" transform="translate(-142 -215.191)"/>
        <path id="Path_1092" data-name="Path 1092" class="cls-1" d="M146.476,218.524l-1.876,1.1V218.3l1.876-1.1Z" transform="translate(-141.731 -217.2)"/>
      </g>
      <path id="Path_1093" data-name="Path 1093" class="cls-1" d="M145.311,242.514,142,244.39v-1.214l3.311-1.876Z" transform="translate(-142 -214.705)"/>
    </g>
    <g id="Group_643" data-name="Group 643" transform="translate(-0.025 180.018)">
      <g id="Group_631" data-name="Group 631" class="cls-2" transform="translate(26.733 129.03)">
        <g id="Group_627" data-name="Group 627" class="cls-3" transform="translate(0 26.816)">
          <path id="Path_1094" data-name="Path 1094" class="cls-4" d="M86.549,305.509a8.987,8.987,0,0,0-8.828,0L24.862,335.966a1.25,1.25,0,0,0,0,2.207l53.3,30.788a7.67,7.67,0,0,0,7.835,0l53.411-30.788a1.25,1.25,0,0,0,0-2.207Z" transform="translate(-24.2 -304.35)"/>
        </g>
        <g id="Group_628" data-name="Group 628" class="cls-3" transform="translate(0 17.877)">
          <path id="Path_1095" data-name="Path 1095" class="cls-5" d="M86.549,297.409a8.987,8.987,0,0,0-8.828,0L24.862,327.866a1.25,1.25,0,0,0,0,2.207l53.3,30.788a7.67,7.67,0,0,0,7.835,0l53.411-30.788a1.25,1.25,0,0,0,0-2.207Z" transform="translate(-24.2 -296.25)"/>
        </g>
        <g id="Group_629" data-name="Group 629" class="cls-3" transform="translate(0 8.939)">
          <path id="Path_1096" data-name="Path 1096" class="cls-6" d="M86.549,289.309a8.987,8.987,0,0,0-8.828,0L24.862,319.766a1.25,1.25,0,0,0,0,2.207l53.3,30.788a7.67,7.67,0,0,0,7.835,0l53.411-30.788a1.25,1.25,0,0,0,0-2.207Z" transform="translate(-24.2 -288.15)"/>
        </g>
        <g id="Group_630" data-name="Group 630" class="cls-3">
          <path id="Path_1097" data-name="Path 1097" class="cls-7" d="M86.549,281.209a8.987,8.987,0,0,0-8.828,0L24.862,311.666a1.25,1.25,0,0,0,0,2.207l53.3,30.788a7.67,7.67,0,0,0,7.835,0l53.411-30.788a1.25,1.25,0,0,0,0-2.207Z" transform="translate(-24.2 -280.05)"/>
        </g>
        <path id="Path_1098" data-name="Path 1098" class="cls-8" d="M139.4,311.766,86.649,281.309a8.987,8.987,0,0,0-8.828,0L24.962,311.766a1.214,1.214,0,0,0-.662,1.1v26.705a1.214,1.214,0,0,0,.662,1.1l53.3,30.788a7.67,7.67,0,0,0,7.835,0l53.411-30.788a1.214,1.214,0,0,0,.662-1.1V312.87h0C139.95,312.428,139.84,311.987,139.4,311.766Z" transform="translate(-24.19 -280.04)"/>
      </g>
      <g id="Group_636" data-name="Group 636" transform="translate(14.815 65.77)">
        <g id="Group_632" data-name="Group 632" class="cls-3" transform="translate(0.028 32.113)">
          <path id="Path_1099" data-name="Path 1099" class="cls-9" d="M88.658,253.232a10.883,10.883,0,0,0-10.7,0L14.17,289.98a1.549,1.549,0,0,0,0,2.648L78.4,329.707a9.689,9.689,0,0,0,9.49,0l64.336-37.079a1.549,1.549,0,0,0,0-2.648Z" transform="translate(-13.425 -251.825)"/>
        </g>
        <g id="Group_633" data-name="Group 633" class="cls-3" transform="translate(0.028 21.408)">
          <path id="Path_1100" data-name="Path 1100" class="cls-10" d="M88.658,243.532a10.883,10.883,0,0,0-10.7,0L14.17,280.28a1.549,1.549,0,0,0,0,2.648L78.4,320.007a9.689,9.689,0,0,0,9.49,0l64.336-37.079a1.549,1.549,0,0,0,0-2.648Z" transform="translate(-13.425 -242.125)"/>
        </g>
        <g id="Group_634" data-name="Group 634" class="cls-3" transform="translate(0.028 10.704)">
          <path id="Path_1101" data-name="Path 1101" class="cls-11" d="M88.658,233.832a10.883,10.883,0,0,0-10.7,0L14.17,270.58a1.549,1.549,0,0,0,0,2.648L78.4,310.307a9.689,9.689,0,0,0,9.49,0l64.336-37.079a1.549,1.549,0,0,0,0-2.648Z" transform="translate(-13.425 -232.425)"/>
        </g>
        <g id="Group_635" data-name="Group 635" class="cls-3" transform="translate(0.028)">
          <path id="Path_1102" data-name="Path 1102" class="cls-12" d="M88.658,224.132a10.883,10.883,0,0,0-10.7,0L14.17,260.88a1.549,1.549,0,0,0,0,2.648L78.4,300.607a9.689,9.689,0,0,0,9.49,0l64.336-37.079a1.549,1.549,0,0,0,0-2.648Z" transform="translate(-13.425 -222.725)"/>
        </g>
        <path id="Path_1103" data-name="Path 1103" class="cls-13" d="M152.224,260.88,88.661,224.132a10.883,10.883,0,0,0-10.7,0L14.172,260.88A1.441,1.441,0,0,0,13.4,262.2v32.223a1.441,1.441,0,0,0,.772,1.324L78.4,332.83a9.688,9.688,0,0,0,9.49,0l64.336-37.079a1.441,1.441,0,0,0,.772-1.324V262.2h0A1.338,1.338,0,0,0,152.224,260.88Z" transform="translate(-13.4 -222.725)"/>
      </g>
      <g id="Group_642" data-name="Group 642">
        <g id="Group_637" data-name="Group 637" class="cls-3" transform="translate(0 39.065)">
          <path id="Path_1104" data-name="Path 1104" class="cls-14" d="M91.154,200.263a13.063,13.063,0,0,0-13.022,0L.885,244.735a1.861,1.861,0,0,0,0,3.2L78.795,292.96a11.256,11.256,0,0,0,11.477,0l78.02-44.914a1.861,1.861,0,0,0,0-3.2Z" transform="translate(0.025 -198.525)"/>
        </g>
        <g id="Group_638" data-name="Group 638" class="cls-3" transform="translate(0 26.043)">
          <path id="Path_1105" data-name="Path 1105" class="cls-14" d="M91.154,188.463a13.063,13.063,0,0,0-13.022,0L.885,232.935a1.861,1.861,0,0,0,0,3.2L78.795,281.16a11.256,11.256,0,0,0,11.477,0l78.02-44.914a1.861,1.861,0,0,0,0-3.2Z" transform="translate(0.025 -186.725)"/>
        </g>
        <g id="Group_639" data-name="Group 639" class="cls-3" transform="translate(0 13.022)">
          <path id="Path_1106" data-name="Path 1106" class="cls-15" d="M91.154,176.663a13.063,13.063,0,0,0-13.022,0L.885,221.135a1.861,1.861,0,0,0,0,3.2L78.795,269.36a11.256,11.256,0,0,0,11.477,0l78.02-44.914a1.861,1.861,0,0,0,0-3.2Z" transform="translate(0.025 -174.925)"/>
        </g>
        <g id="Group_640" data-name="Group 640" class="cls-3" transform="translate(0)">
          <path id="Path_1107" data-name="Path 1107" class="cls-15" d="M91.154,164.863a13.063,13.063,0,0,0-13.022,0L.885,209.335a1.861,1.861,0,0,0,0,3.2L78.795,257.56a11.256,11.256,0,0,0,11.477,0l78.02-44.914a1.861,1.861,0,0,0,0-3.2Z" transform="translate(0.025 -163.125)"/>
        </g>
        <path id="Path_1108" data-name="Path 1108" class="cls-16" d="M168.288,209.446,91.152,164.863a13.063,13.063,0,0,0-13.022,0L.883,209.335A1.666,1.666,0,0,0,0,210.88v39.065a1.761,1.761,0,0,0,.883,1.545l77.909,45.024a11.256,11.256,0,0,0,11.477,0l78.02-44.914a1.666,1.666,0,0,0,.883-1.545V210.991h0A1.492,1.492,0,0,0,168.288,209.446Z" transform="translate(0.028 -163.125)"/>
        <g id="Group_641" data-name="Group 641" class="cls-3" transform="translate(0)">
          <path id="Path_1109" data-name="Path 1109" class="cls-15" d="M91.154,164.863a13.063,13.063,0,0,0-13.022,0L.885,209.335a1.861,1.861,0,0,0,0,3.2L78.795,257.56a11.256,11.256,0,0,0,11.477,0l78.02-44.914a1.861,1.861,0,0,0,0-3.2Z" transform="translate(0.025 -163.125)"/>
        </g>
        <path id="Path_1110" data-name="Path 1110" class="cls-17" d="M168.288,206.362l-78.02,44.914a11.256,11.256,0,0,1-11.477,0L.883,206.362a1.874,1.874,0,0,1-.662-.662,1.8,1.8,0,0,0,.662,2.428l77.909,45.024a11.256,11.256,0,0,0,11.477,0l78.02-44.914a1.829,1.829,0,0,0,.662-2.428A1.742,1.742,0,0,1,168.288,206.362Z" transform="translate(0.028 -158.717)"/>
      </g>
    </g>
    <ellipse id="Ellipse_25" data-name="Ellipse 25" class="cls-18" cx="42.596" cy="24.609" rx="42.596" ry="24.609" transform="translate(42.047 203.385)"/>
    <g id="Group_645" data-name="Group 645" transform="translate(36.558 -0.043)">
      <path id="Path_1111" data-name="Path 1111" class="cls-19" d="M63.5,187.7s-.993,1.1-2.1,2.317c-1.1,1.324-4.083,3.09-5.407,3.862-1.214.772-7.063,5.187-8.276,9.49s2.98,4.856,7.173,4.193c4.193-.772,8.166-4.635,9.38-6.069,1.1-1.435,5.187-4.635,10.373-7.283s2.1-6.29,2.1-6.29Z" transform="translate(-31.637 19.48)"/>
      <path id="Path_1112" data-name="Path 1112" class="cls-19" d="M98.231,199.4a15.609,15.609,0,0,1,1.1,4.414c.221,2.538.552,7.945.772,9.49a13.1,13.1,0,0,1-2.648,9.159c-2.759,3.752-4.193,5.187-7.945,3.752s-3.642-7.725-2.98-10.925a103.123,103.123,0,0,0,1.214-11.146,1.709,1.709,0,0,1,.221-1.214Z" transform="translate(-27.634 20.691)"/>
      <path id="Path_1113" data-name="Path 1113" class="cls-20" d="M50.4,122.118s.772,28.581,7.5,43.81a111.52,111.52,0,0,1,5.407,29.244,5.725,5.725,0,0,0,.441,4.966c1.545,2.207,11.366,4.3,13.022-3.09,1.655-7.283.993-20.967-.772-26.705s.662-21.408.662-21.408,2.648,1.655,6.18,13.022c3.531,11.256,6.069,15.67,7.283,18.76s2.317,22.291,1.545,31.671c0,0,7.945,1.1,10.263-2.648s3.09-23.395,2.428-29.685c-.552-6.29-3.2-26.264-2.869-32.444s1.655-11.256.221-17.436S58.456,110.2,58.456,110.2Z" transform="translate(-31.338 11.456)"/>
      <path id="Path_1114" data-name="Path 1114" class="cls-19" d="M101.383,146.8c.331-6.18,1.655-11.256.221-17.436-.552-2.317-6.732-5.738-14.346-9.049-12.8-1.214-29.023-2.538-30.126-2.317a52.33,52.33,0,0,0-5.849,1.986l-.883,1.324s0,1.766.221,4.635c2.98.883,8.718,0,8.718,0,.772,1.986,5.849,9.159,12.028,12.249s24.388,1.986,25.381,3.2,1.214,16.884,1.1,18.87,1.766,14.567,3.421,25.6c1.655,10.925-.883,24.167-.993,24.609a4.454,4.454,0,0,0,1.435-1.435c2.317-3.752,3.09-23.395,2.428-29.685C103.7,172.958,101.052,152.984,101.383,146.8Z" transform="translate(-31.338 12.262)"/>
      <path id="Path_1115" data-name="Path 1115" class="cls-21" d="M65.235,36.565s-9.27,2.1-12.36,2.869a1.439,1.439,0,0,0-1.1.993c-.883,2.317-3.2,9.38-1.435,19.753a98.127,98.127,0,0,1,1.435,21.3l-4.3,22.4s-5.407,21.3-4.966,21.85,12.47,9.711,16.222,8.387,2.538-3.421,2.538-3.421,2.98,15.449,16.443,15.229c13.463-.11,24.388-.11,26.6-5.518,2.317-5.407-.662-28.25-2.98-37.189-2.538-9.159-8.166-27.147-8.166-27.147L112.8,54.332l-16.774-12.8s-3.973-7.5-5.628-8.387c-1.655-.993-2.538-.11-2.538-.11Z" transform="translate(-32.158 3.43)"/>
      <g id="Group_644" data-name="Group 644" transform="translate(10.675 129.271)">
        <path id="Path_1116" data-name="Path 1116" class="cls-22" d="M58.8,120.3c0,.772-.441,1.876-2.869,2.759-2.648.883-8.939-2.98-13.132-5.959,2.1,1.766,12.36,9.27,15.78,8.056a3.834,3.834,0,0,0,1.655-.883A19.86,19.86,0,0,1,58.8,120.3Z" transform="translate(-42.8 -117.1)"/>
        <path id="Path_1117" data-name="Path 1117" class="cls-23" d="M101.768,129.345c-2.428,5.738-14.015,5.628-28.14,5.849a15.476,15.476,0,0,1-8.828-2.538,14.642,14.642,0,0,0,10.373,4.083c13.463-.11,24.388-.11,26.6-5.518.772-1.766.883-5.407.772-9.821C102.651,124.931,102.43,127.8,101.768,129.345Z" transform="translate(-40.522 -116.655)"/>
      </g>
      <path id="Path_1118" data-name="Path 1118" class="cls-24" d="M87.638,33.027s3.421,4.193-1.545,9.711C83,46.159,77.817,53.663,73.4,61.387c-2.759,4.856-5.3,7.394-6.842,11.587,0,0-.221-4.966-.441-12.47-.221-7.173-.331-14.677,0-16.553C66.892,39.979,83.776,31.04,87.638,33.027Z" transform="translate(-29.732 3.437)"/>
      <path id="Path_1119" data-name="Path 1119" class="cls-25" d="M75.357,48.629s-1.766,1.1-2.317.993A13.539,13.539,0,0,1,70.5,47.635s-4.856-.11-5.407-2.207-.883-4.193-1.324-5.3-2.538-6.29-2.648-8.387c0-2.1.11-5.849-.883-7.835-.883-1.986-2.1-21.96,17.215-21.408C96.655,3.053,90.7,23.027,90.7,23.027s1.435.552.552,3.2c-.883,2.538-.993,2.869-1.435,4.083a5.387,5.387,0,0,1-1.876,3.09l-.331,2.538a9.875,9.875,0,0,1-1.435,7.173C83.744,46.532,75.357,48.629,75.357,48.629Z" transform="translate(-30.362 0.305)"/>
      <path id="Path_1120" data-name="Path 1120" class="cls-20" d="M53.182,39s-2.1.331-8.718,17.1c-3.752,9.38-9.49,19.091-10.7,26.043s-.552,14.456.883,14.9c1.324.552,25.271,9.49,32.775,12.36a.79.79,0,0,0,.993-.552l2.1-11.7-14.9-5.738S52.74,88,50.092,86.672c0,0,2.98-5.518,2.759-6.952-.221-1.545.221-16.994-1.435-23.395C49.65,50.035,53.182,39,53.182,39Z" transform="translate(-33.126 4.085)"/>
      <path id="Path_1121" data-name="Path 1121" class="cls-25" d="M60.32,79.478s-2.1-1.324-2.538-1.545c-.552-.221-3.2-1.1-3.752-1.324a11.444,11.444,0,0,0-2.759,0,.745.745,0,0,0-.662.441c-.662,1.214-2.428,4.635-2.207,5.849,0,0,4.966,3.09,5.518,4.524l.772.221C54.692,87.534,58,80.472,60.32,79.478Z" transform="translate(-31.547 7.969)"/>
      <path id="Path_1122" data-name="Path 1122" class="cls-20" d="M98.723,97.225c-.552-2.207-1.324-4.856-2.1-7.725L66.5,102.411a31.633,31.633,0,0,0,24.829,10.373,21.471,21.471,0,0,0,9.821-3.09C100.378,104.839,99.5,100.315,98.723,97.225Z" transform="translate(-29.671 9.313)"/>
      <path id="Path_1123" data-name="Path 1123" class="cls-20" d="M111.867,52.3s-7.945,1.1-14.346,11.256a157.905,157.905,0,0,0-11.146,21.96l-.11,1.435a5.382,5.382,0,0,1-7.5,3.973c-6.732-2.98-16.774-7.614-18.65-8.939A17.324,17.324,0,0,0,52.5,93.131c-1.324,6.29-.993,6.29-.993,6.29s26.816,12.47,37.079,12.36c10.373-.11,23.395-34.1,24.94-41.162C114.846,63.556,116.5,54.286,111.867,52.3Z" transform="translate(-31.228 5.462)"/>
      <path id="Path_1124" data-name="Path 1124" class="cls-26" d="M111.867,52.3s-7.945,1.1-14.346,11.256a157.905,157.905,0,0,0-11.146,21.96l-.11,1.435a5.382,5.382,0,0,1-7.5,3.973c-6.732-2.98-16.774-7.614-18.65-8.939A17.324,17.324,0,0,0,52.5,93.131c-1.324,6.29-.993,6.29-.993,6.29s26.816,12.47,37.079,12.36c10.373-.11,23.395-34.1,24.94-41.162C114.846,63.556,116.5,54.286,111.867,52.3Z" transform="translate(-31.228 5.462)"/>
      <path id="Path_1125" data-name="Path 1125" class="cls-21" d="M79.7,89.356s3.421,3.2,4.856,1.435.993-1.876.993-1.876,3.09,0,3.421-1.876,1.876-.883,1.986-2.98S88.528,82.4,88.528,82.4Z" transform="translate(-28.305 8.575)"/>
      <path id="Path_1126" data-name="Path 1126" class="cls-25" d="M76,88.235s.883-.883,2.1-1.876,3.09-5.187,3.421-5.628c.331-.331,4.414-3.421,6.29-3.531,1.986,0,.552,2.1,0,2.428a25.182,25.182,0,0,1-2.317,1.214S83.5,82.5,83.283,82.718s5.407-.441,6.29.11a1.644,1.644,0,0,1,.11,2.428,1.507,1.507,0,0,1-1.1.331,2,2,0,0,1-1.1,2.538c-1.655.772-2.1.331-2.1.331s-.11,2.98-2.98,2.317Z" transform="translate(-28.688 8.04)"/>
      <path id="Path_1127" data-name="Path 1127" class="cls-27" d="M59.845,13.909s-2.538,8.056,4.083,5.738,12.58-6.069,14.677-4.635c1.545,1.1,1.545,4.524,1.435,6.069a2.534,2.534,0,0,0,.441,1.545L82.467,25.5a1.864,1.864,0,0,1,.331,1.1l.11,1.986a.87.87,0,0,0,.883.883h.441a.892.892,0,0,0,.993-.772l.552-2.869s1.545-3.973,4.856-2.428c0,0,2.207-2.98,1.435-9.27C91.516,7.729,88.647,1.108,76.177,0,63.818-.989,59.845,13.909,59.845,13.909Z" transform="translate(-30.41 0.043)"/>
      <path id="Path_1128" data-name="Path 1128" class="cls-28" d="M77.569,50.94l-1.876-1.435a9.691,9.691,0,0,0-2.428,2.98c-.662,1.545,0,6.29,0,6.29l-.552.993-.662-1.324L71.5,52.705s.662-4.193.662-4.3c.11-.11,3.642.331,3.642.331A7.253,7.253,0,0,1,77.569,50.94Z" transform="translate(-29.153 5.057)"/>
      <path id="Path_1129" data-name="Path 1129" class="cls-28" d="M69.169,45.5a5.929,5.929,0,0,0-2.869.883s2.1.11,2.428.11C69.059,46.6,69.169,45.5,69.169,45.5Z" transform="translate(-29.692 4.758)"/>
      <path id="Path_1130" data-name="Path 1130" class="cls-20" d="M72.858,45.938l3.311,3.09S73.189,50.352,72.417,53c0,0-3.642.662-3.973-.662s0-4.635-.441-6.069S72.858,45.938,72.858,45.938Z" transform="translate(-29.518 4.762)"/>
      <path id="Path_1131" data-name="Path 1131" class="cls-20" d="M68.748,51.707a19.652,19.652,0,0,1-1.324,3.862C66.762,56.673,66.1,58,66.1,58l.11,16s5.849-12.139,7.173-14.567c0,0-.221-5.849-.772-6.952C72.059,51.266,68.748,51.707,68.748,51.707Z" transform="translate(-29.713 5.393)"/>
      <path id="Path_1132" data-name="Path 1132" class="cls-29" d="M84.287,30.3C80.425,41.446,69.5,44.756,69.5,44.756a13.539,13.539,0,0,0,2.538,1.986c.552.11,2.317-.993,2.317-.993s8.276-1.986,10.7-5.518a9.278,9.278,0,0,0,1.435-7.173l.331-2.428A2.476,2.476,0,0,1,84.287,30.3Z" transform="translate(-29.361 3.184)"/>
      <path id="Path_1133" data-name="Path 1133" class="cls-20" d="M93.333,42.1s-1.545,5.3-1.766,5.518S87.7,47.4,87.7,47.4l1.766,3.311S71.152,70.35,67.4,80.944A230.322,230.322,0,0,1,91.347,51.59L89.14,48.28l3.752.772Z" transform="translate(-29.578 4.406)"/>
      <path id="Path_1134" data-name="Path 1134" class="cls-20" d="M64.043,37.9,63.05,39l1.1,1.1L60.733,43.2s-.993,21.519,3.09,35.754c0,0-5.628-13.022-4.3-36.306l3.642-2.538-1.214-1.214Z" transform="translate(-30.415 3.971)"/>
      <path id="Path_1135" data-name="Path 1135" class="cls-19" d="M74.588,145.766l.11.11L69.953,140.8c2.207,3.09-.331,17.215-.552,20.415s2.538,9.932,3.531,17.767-1.1,18.981-1.1,18.981A6.083,6.083,0,0,0,74.7,193.88c1.655-7.283.993-20.967-.772-26.705C72.16,161.546,74.588,145.766,74.588,145.766Z" transform="translate(-29.372 14.624)"/>
      <path id="Path_1136" data-name="Path 1136" class="cls-30" d="M88.484,110.4c10.373-.11,23.395-34.1,24.94-41.162l.662-3.642c0,.11-2.759,7.394-5.3,13.9-2.648,6.511-16.443,26.374-23.505,27.7-6.4,1.214-29.244-9.49-33.658-11.587-.441,2.428-.221,2.428-.221,2.428S78.221,110.514,88.484,110.4Z" transform="translate(-31.24 6.839)"/>
      <path id="Path_1137" data-name="Path 1137" class="cls-31" d="M82.362,28.1a.892.892,0,0,0,.993-.772l.552-2.869s1.545-3.973,4.856-2.428c0,0,2.1-2.869,1.545-8.828C86.666,18.718,78.5,21.256,78.5,21.256l1.986,2.869a1.864,1.864,0,0,1,.331,1.1l.11,1.986a.87.87,0,0,0,.883.883Z" transform="translate(-28.429 1.414)"/>
    </g>
  </g>
</svg>
