<svg xmlns="http://www.w3.org/2000/svg" viewBox="0 0 17.929 16.536">
  <defs>
    <style>
      .cls-1 {
        fill: #56c7d3;
      }
    </style>
  </defs>
  <g id="book_1_" data-name="book (1)" transform="translate(0 -18.463)">
    <path id="Path_83" data-name="Path 83" class="cls-1" d="M17.65,22.231a1.421,1.421,0,0,0-.636-.463,1.734,1.734,0,0,1-.054.614l-3.23,10.626a.774.774,0,0,1-.377.447,1.194,1.194,0,0,1-.6.167H2.815q-1.292,0-1.55-.754a.491.491,0,0,1,.011-.463.474.474,0,0,1,.409-.162H11.04a1.984,1.984,0,0,0,1.383-.372,4.2,4.2,0,0,0,.77-1.653l2.95-9.754a1.535,1.535,0,0,0-.194-1.4,1.418,1.418,0,0,0-1.227-.6H6.529a2.993,2.993,0,0,0-.549.1l.011-.032a2.247,2.247,0,0,0-.511-.059.719.719,0,0,0-.388.124,1.247,1.247,0,0,0-.285.253,1.853,1.853,0,0,0-.21.345q-.1.21-.172.388t-.161.377a2.426,2.426,0,0,1-.178.328q-.065.086-.183.226t-.194.248a.606.606,0,0,0-.1.194.7.7,0,0,0,.022.285.887.887,0,0,1,.032.274,4.082,4.082,0,0,1-.3,1.039,4.438,4.438,0,0,1-.458.91q-.043.054-.237.242a.861.861,0,0,0-.237.328q-.043.054-.005.3a1.555,1.555,0,0,1,.027.345,4.411,4.411,0,0,1-.269.969,6.586,6.586,0,0,1-.452.99,1.765,1.765,0,0,1-.183.248.905.905,0,0,0-.183.3.949.949,0,0,0,.005.3.842.842,0,0,1-.005.323,5.843,5.843,0,0,1-.323.985,7.188,7.188,0,0,1-.485.985,2.591,2.591,0,0,1-.178.253,2.627,2.627,0,0,0-.178.253.67.67,0,0,0-.086.226.535.535,0,0,0,.032.21.6.6,0,0,1,.032.232q-.011.151-.043.4t-.032.29a1.953,1.953,0,0,0,.022,1.368,3.025,3.025,0,0,0,1.071,1.416A2.635,2.635,0,0,0,2.8,35h9.937a2.149,2.149,0,0,0,1.319-.468,2.222,2.222,0,0,0,.823-1.157l2.961-9.754A1.522,1.522,0,0,0,17.65,22.231ZM6.2,22.252l.226-.689a.48.48,0,0,1,.178-.242.451.451,0,0,1,.275-.1h6.546a.235.235,0,0,1,.215.1.281.281,0,0,1,.022.242l-.226.689a.481.481,0,0,1-.178.242.451.451,0,0,1-.274.1H6.432a.235.235,0,0,1-.215-.1A.281.281,0,0,1,6.2,22.252ZM5.3,25.009l.226-.689a.481.481,0,0,1,.178-.242.45.45,0,0,1,.275-.1h6.546a.235.235,0,0,1,.215.1.28.28,0,0,1,.021.242l-.226.689a.48.48,0,0,1-.178.242.45.45,0,0,1-.275.1H5.539a.234.234,0,0,1-.215-.1A.28.28,0,0,1,5.3,25.009Z" transform="translate(0)"/>
  </g>
</svg>
