<svg xmlns="http://www.w3.org/2000/svg" viewBox="0 0 56.937 60.04">
  <defs>
    <style>
      .cls-1 {
        fill: #f9b126;
      }
    </style>
  </defs>
  <g id="classroom" transform="translate(-13.233)">
    <g id="Group_161" data-name="Group 161" transform="translate(32.66 6.573)">
      <g id="Group_160" data-name="Group 160">
        <path id="Path_157" data-name="Path 157" class="cls-1" d="M179.844,56.049a.942.942,0,0,0,0,1.883h7.76a5.862,5.862,0,0,1,.83-1.883Z" transform="translate(-178.902 -56.049)"/>
      </g>
    </g>
    <g id="Group_163" data-name="Group 163" transform="translate(27.198)">
      <g id="Group_162" data-name="Group 162">
        <path id="Path_158" data-name="Path 158" class="cls-1" d="M174,0H133.615a1.3,1.3,0,0,0-1.295,1.295V28.354a1.3,1.3,0,0,0,1.295,1.295h6.736l.013-2.59H134.91V2.59H172.7V27.06H159.3v2.59H174a1.3,1.3,0,0,0,1.295-1.295V1.295A1.3,1.3,0,0,0,174,0Z" transform="translate(-132.32)"/>
      </g>
    </g>
    <g id="Group_165" data-name="Group 165" transform="translate(42.96 5.722)">
      <g id="Group_164" data-name="Group 164">
        <path id="Path_159" data-name="Path 159" class="cls-1" d="M270.862,48.8a4.126,4.126,0,0,0-2.849,7.111h5.7a4.126,4.126,0,0,0-2.849-7.111Z" transform="translate(-266.735 -48.796)"/>
      </g>
    </g>
    <g id="Group_167" data-name="Group 167" transform="translate(36.974 5.631)">
      <g id="Group_166" data-name="Group 166" transform="translate(0)">
        <path id="Path_160" data-name="Path 160" class="cls-1" d="M244.059,51.513a1.98,1.98,0,0,0-.8-.46l-.441-2.1a1.177,1.177,0,0,0-2.3.007H230.7a5.865,5.865,0,0,1,.83,1.883h9.282l.209,1-4.049,4.294-7.291.853h-9.2a4.724,4.724,0,0,0-4.712,4.689l-.073,14.484a2,2,0,0,0,1.98,2.147h.01a1.991,1.991,0,0,0,1.991-1.981l.021-4.252.052-10.378a.417.417,0,0,1,.833.011c0,18.592-.043,4.423-.043,30.139a6.6,6.6,0,0,1,2.374-.551v-.472a6.084,6.084,0,0,1,2.405-7.952v-6.8h1.032V82.39a6.074,6.074,0,0,1,4.779.31l-.008-21.873L238.149,60a1.991,1.991,0,0,0,1.217-.612l4.776-5.064A1.991,1.991,0,0,0,244.059,51.513Z" transform="translate(-215.687 -48.017)"/>
      </g>
    </g>
    <g id="Group_169" data-name="Group 169" transform="translate(39.904 51.006)">
      <g id="Group_168" data-name="Group 168">
        <path id="Path_161" data-name="Path 161" class="cls-1" d="M260.131,439.488a4.564,4.564,0,0,0-4.552-4.529H245.251a4.562,4.562,0,0,0-4.552,4.529l-.023,4.5h1.7a4.714,4.714,0,0,1,4.705-4.705h6.837a4.713,4.713,0,0,1,4.7,4.705h1.532Z" transform="translate(-240.676 -434.959)"/>
      </g>
    </g>
    <g id="Group_171" data-name="Group 171" transform="translate(45.672 41.761)">
      <g id="Group_170" data-name="Group 170">
        <path id="Path_162" data-name="Path 162" class="cls-1" d="M293.851,356.124a3.987,3.987,0,1,0,3.987,3.987A3.987,3.987,0,0,0,293.851,356.124Z" transform="translate(-289.864 -356.124)"/>
      </g>
    </g>
    <g id="Group_173" data-name="Group 173" transform="translate(18.969 41.761)">
      <g id="Group_172" data-name="Group 172" transform="translate(0)">
        <path id="Path_163" data-name="Path 163" class="cls-1" d="M66.132,356.124a3.987,3.987,0,1,0,3.987,3.987A3.986,3.986,0,0,0,66.132,356.124Z" transform="translate(-62.145 -356.124)"/>
      </g>
    </g>
    <g id="Group_175" data-name="Group 175" transform="translate(42.946 56.678)">
      <g id="Group_174" data-name="Group 174">
        <path id="Path_164" data-name="Path 164" class="cls-1" d="M276.816,483.33h-6.837a3.362,3.362,0,0,0-3.362,3.362h13.561A3.362,3.362,0,0,0,276.816,483.33Z" transform="translate(-266.617 -483.33)"/>
      </g>
    </g>
    <g id="Group_177" data-name="Group 177" transform="translate(15.933 56.678)">
      <g id="Group_176" data-name="Group 176" transform="translate(0)">
        <path id="Path_165" data-name="Path 165" class="cls-1" d="M46.458,483.33H39.621a3.362,3.362,0,0,0-3.362,3.362H49.82A3.362,3.362,0,0,0,46.458,483.33Z" transform="translate(-36.259 -483.33)"/>
      </g>
    </g>
    <g id="Group_179" data-name="Group 179" transform="translate(13.233 37.31)">
      <g id="Group_178" data-name="Group 178" transform="translate(0)">
        <path id="Path_166" data-name="Path 166" class="cls-1" d="M36.433,318.214A1.7,1.7,0,0,0,34.4,319.5l-2.016,8.888-4.759,3.482H17.808a4.564,4.564,0,0,0-4.552,4.529l-.023,4.5H14.59A4.712,4.712,0,0,1,19.3,336.2h6.837a4.674,4.674,0,0,1,2.4.659l.027-1.456,6.348-4.644a1.7,1.7,0,0,0,.655-1l2.157-9.509A1.7,1.7,0,0,0,36.433,318.214Z" transform="translate(-13.233 -318.172)"/>
      </g>
    </g>
  </g>
</svg>
