<svg id="diploma_icon-icons.com_64575" xmlns="http://www.w3.org/2000/svg" viewBox="0 0 37.336 37.331">
  <defs>
    <style>
      .cls-1 {
        fill: #f9b126;
        fill-rule: evenodd;
      }
    </style>
  </defs>
  <g id="Group_652" data-name="Group 652" transform="translate(6.222 20.74)">
    <g id="Group_651" data-name="Group 651">
      <path id="Path_1154" data-name="Path 1154" class="cls-1" d="M18.032,4.8H2.477a1.037,1.037,0,1,0,0,2.074H18.032a1.037,1.037,0,0,0,0-2.074ZM12.847,8.948H2.477a1.037,1.037,0,0,0,0,2.074h10.37a1.037,1.037,0,0,0,0-2.074Z" transform="translate(-1.44 -4.8)"/>
    </g>
  </g>
  <g id="Group_654" data-name="Group 654" transform="translate(0 0)">
    <g id="Group_653" data-name="Group 653">
      <path id="Path_1155" data-name="Path 1155" class="cls-1" d="M36.7,31.192a1.065,1.065,0,0,0-.406-.082H30.072V1.037A1.034,1.034,0,0,0,29.035,0h-28A1.034,1.034,0,0,0,0,1.037V32.665a4.663,4.663,0,0,0,4.666,4.666c.117,0,.229-.026.346-.035a.817.817,0,0,0,.173.035H32.146c.026,0,.048,0,.073,0,.156,0,.285,0,.449,0a4.663,4.663,0,0,0,4.666-4.666v-.518a1.046,1.046,0,0,0-.635-.955Zm-28.806,0a1.04,1.04,0,0,0-.635.955v.518a2.592,2.592,0,1,1-5.185,0V2.074H28V31.109H8.3a1.043,1.043,0,0,0-.4.082Zm24.771,4.066c-.125,0-.259.009-.389.013-.043,0-.086-.013-.13-.013H8.546a4.581,4.581,0,0,0,.735-2.074H35.205A2.592,2.592,0,0,1,32.665,35.257ZM15.529,10.089a4.127,4.127,0,0,0-8.218-.22L4.485,12.7a1.08,1.08,0,0,0,0,1.53L7.548,17.3a1.085,1.085,0,0,0,1.534,0l2.428-2.428,2.273,2.281a1.033,1.033,0,0,0,1.465,0l2.934-2.934a1.033,1.033,0,0,0,0-1.465l-2.653-2.662ZM8.313,15,6.779,13.463l1.041-1.037a4.1,4.1,0,0,0,1.543,1.521L8.313,15ZM11.6,12.426a1.04,1.04,0,0,0-.432,0,2.058,2.058,0,0,1-1.815-1.815,1.119,1.119,0,0,0,0-.432A2.07,2.07,0,1,1,11.6,12.426Zm2.917,2.523L13.5,13.934a4.172,4.172,0,0,0,1.465-1.465l1.02,1.011L14.518,14.95Z" transform="translate(0 0)"/>
    </g>
  </g>
</svg>
