<svg id="education_1_" data-name="education(1)" xmlns="http://www.w3.org/2000/svg" viewBox="0 0 62.185 62.185">
  <defs>
    <style>
      .cls-1 {
        fill: #f9b126;
      }
    </style>
  </defs>
  <g id="Group_183" data-name="Group 183" transform="translate(0 0)">
    <g id="Group_182" data-name="Group 182">
      <path id="Path_170" data-name="Path 170" class="cls-1" d="M61.149,0H1.036A1.036,1.036,0,0,0,0,1.036H0V21.765H2.073V2.073H60.112v22.8H23.837v2.073H61.148a1.036,1.036,0,0,0,1.036-1.036h0V1.036A1.036,1.036,0,0,0,61.149,0Z" transform="translate(0 0)"/>
    </g>
  </g>
  <g id="Group_185" data-name="Group 185" transform="translate(34.202 5.182)">
    <g id="Group_184" data-name="Group 184">
      <rect id="Rectangle_206" data-name="Rectangle 206" class="cls-1" width="20.728" height="2.073"/>
    </g>
  </g>
  <g id="Group_187" data-name="Group 187" transform="translate(37.311 11.401)">
    <g id="Group_186" data-name="Group 186">
      <rect id="Rectangle_207" data-name="Rectangle 207" class="cls-1" width="20.728" height="2.073"/>
    </g>
  </g>
  <g id="Group_189" data-name="Group 189" transform="translate(33.165 17.619)">
    <g id="Group_188" data-name="Group 188">
      <rect id="Rectangle_208" data-name="Rectangle 208" class="cls-1" width="20.728" height="2.073"/>
    </g>
  </g>
  <g id="Group_191" data-name="Group 191" transform="translate(0 4.146)">
    <g id="Group_190" data-name="Group 190">
      <path id="Path_171" data-name="Path 171" class="cls-1" d="M33.082,36.79a3.345,3.345,0,0,0-4.373-1.8l-.087.038-8.4,4.359a5.125,5.125,0,0,0,.509-2.2,5.182,5.182,0,1,0-9.3,3.109h-.043a7.112,7.112,0,0,0-6.607,4.6L2.011,54.429a3.32,3.32,0,1,0,6.233,2.283l1.084-3.449v15A5.167,5.167,0,0,0,2.6,76.082,4.775,4.775,0,0,0,0,80.318V89a1.036,1.036,0,0,0,1.036,1.036H11.4A1.036,1.036,0,0,0,12.437,89h0V80.318a4.764,4.764,0,0,0-1.849-3.752h7.845a4.763,4.763,0,0,0-1.849,3.752V89a1.036,1.036,0,0,0,1.036,1.036H27.983A1.036,1.036,0,0,0,29.02,89h0V80.318a4.775,4.775,0,0,0-2.6-4.235A5.178,5.178,0,0,0,21.765,67.3V46.1l9.514-4.94A3.345,3.345,0,0,0,33.082,36.79ZM15.546,34.073a3.109,3.109,0,1,1-3.109,3.109A3.109,3.109,0,0,1,15.546,34.073Zm-9.328,35.2a3.109,3.109,0,1,1-3.109,3.109A3.109,3.109,0,0,1,6.218,69.272Zm4.146,18.694H2.073V80.318A2.719,2.719,0,0,1,4.789,77.6H7.648a2.719,2.719,0,0,1,2.716,2.716Zm16.583-7.649v7.649H18.655V80.318A2.719,2.719,0,0,1,21.371,77.6h2.859A2.719,2.719,0,0,1,26.947,80.318ZM22.8,69.272a3.109,3.109,0,1,1-3.109,3.109A3.113,3.113,0,0,1,22.8,69.272Zm8.385-30.753a1.333,1.333,0,0,1-.782.767L20.251,44.553a1.037,1.037,0,0,0-.559.92V68.262a5.112,5.112,0,0,0-1.613,6.23h-1.5V56.874H14.51V74.493H10.94A5.134,5.134,0,0,0,11.4,72.42h0V46.51A1.036,1.036,0,0,0,9.375,46.2L6.281,56.047a1.246,1.246,0,0,1-1.729.689,1.272,1.272,0,0,1-.579-1.646L6.74,45.554a5.007,5.007,0,0,1,4.644-3.19h7.338a1.032,1.032,0,0,0,.477-.116L29.5,36.9a1.276,1.276,0,0,1,1.631.6A1.261,1.261,0,0,1,31.186,38.519Z" transform="translate(0 -32)"/>
    </g>
  </g>
  <g id="Group_193" data-name="Group 193" transform="translate(33.165 39.334)">
    <g id="Group_192" data-name="Group 192">
      <path id="Path_172" data-name="Path 172" class="cls-1" d="M265.835,312.512a5.182,5.182,0,1,0-7.328-.1l.1.1a4.775,4.775,0,0,0-2.6,4.235v8.685a1.036,1.036,0,0,0,1.036,1.036H267.4a1.036,1.036,0,0,0,1.036-1.036h0v-8.685A4.775,4.775,0,0,0,265.835,312.512Zm-3.616-6.81a3.109,3.109,0,1,1-3.109,3.109A3.109,3.109,0,0,1,262.218,305.7Zm4.146,18.694h-8.291v-7.649a2.719,2.719,0,0,1,2.716-2.716h2.859a2.719,2.719,0,0,1,2.716,2.716Z" transform="translate(-256 -303.618)"/>
    </g>
  </g>
  <g id="Group_195" data-name="Group 195" transform="translate(49.748 39.334)">
    <g id="Group_194" data-name="Group 194">
      <path id="Path_173" data-name="Path 173" class="cls-1" d="M393.835,312.512a5.182,5.182,0,1,0-7.328-.1l.1.1a4.775,4.775,0,0,0-2.6,4.235v8.685a1.036,1.036,0,0,0,1.036,1.036H395.4a1.036,1.036,0,0,0,1.036-1.036h0v-8.685A4.775,4.775,0,0,0,393.835,312.512Zm-3.616-6.81a3.109,3.109,0,1,1-3.109,3.109A3.109,3.109,0,0,1,390.218,305.7Zm4.146,18.694h-8.291v-7.649a2.719,2.719,0,0,1,2.716-2.716h2.859a2.719,2.719,0,0,1,2.716,2.716Z" transform="translate(-384 -303.618)"/>
    </g>
  </g>
</svg>
