<svg xmlns="http://www.w3.org/2000/svg" viewBox="0 0 16.381 12.871">
  <defs>
    <style>
      .cls-1 {
        fill: #56c7d3;
      }
    </style>
  </defs>
  <g id="envelope_1_" data-name="envelope (1)" transform="translate(0 -54.82)">
    <g id="Group_88" data-name="Group 88" transform="translate(0 54.82)">
      <path id="Path_80" data-name="Path 80" class="cls-1" d="M1.572,58.787q.311.219,1.874,1.3t2.4,1.668q.091.064.388.279t.494.347q.2.132.475.3a2.758,2.758,0,0,0,.526.247,1.448,1.448,0,0,0,.457.082H8.2a1.45,1.45,0,0,0,.457-.082,2.761,2.761,0,0,0,.526-.247q.279-.165.475-.3t.494-.347q.3-.215.389-.279l4.278-2.971a4.343,4.343,0,0,0,1.115-1.124,2.414,2.414,0,0,0,.448-1.38,1.475,1.475,0,0,0-1.463-1.463H1.463A1.305,1.305,0,0,0,.379,55.3,1.845,1.845,0,0,0,0,56.484a2.135,2.135,0,0,0,.5,1.248A4.537,4.537,0,0,0,1.572,58.787Z" transform="translate(0 -54.82)"/>
      <path id="Path_81" data-name="Path 81" class="cls-1" d="M15.467,185.232q-3,2.029-4.552,3.154-.521.384-.846.6a5.218,5.218,0,0,1-.864.439,2.63,2.63,0,0,1-1.005.224H8.181a2.631,2.631,0,0,1-1.006-.224,5.22,5.22,0,0,1-.864-.439q-.324-.215-.846-.6-1.234-.9-4.543-3.154a4.842,4.842,0,0,1-.923-.8V191.7a1.408,1.408,0,0,0,.43,1.033,1.408,1.408,0,0,0,1.033.43H14.919a1.467,1.467,0,0,0,1.463-1.463v-7.258A5.041,5.041,0,0,1,15.467,185.232Z" transform="translate(0 -180.287)"/>
    </g>
  </g>
</svg>
