<svg xmlns="http://www.w3.org/2000/svg" viewBox="0 0 51.3 61.648">
  <defs>
    <style>
      .cls-1 {
        fill: #f9b126;
      }
    </style>
  </defs>
  <g id="female-graduate-student" transform="translate(-35.303 0)">
    <g id="Group_159" data-name="Group 159" transform="translate(35.302 0.001)">
      <path id="Path_156" data-name="Path 156" class="cls-1" d="M81.433,40.309A4.954,4.954,0,0,0,78.609,37.9L74.82,36.156c0-2.781-.03-16.635-.015-18.092a18.236,18.236,0,0,0-.843-6.043l4.718-1.7.011,4.359H78.37a.411.411,0,0,0-.446.363l-.415,3.6a.411.411,0,0,0,.37.455h3.3a.414.414,0,0,0,.369-.458q-.125-1.06-.248-2.12l-.172-1.48a.412.412,0,0,0-.446-.361h-.321l.007-4.966.168-.061.558-.2a1.192,1.192,0,0,0,0-2.243L61.358.072a1.185,1.185,0,0,0-.811,0L40.815,7.2a1.192,1.192,0,0,0,0,2.243l7.155,2.586a18.32,18.32,0,0,0-.886,6.194v17.93L43.3,37.9a5,5,0,0,0-2.823,2.409s-8.354,21.34-3.823,21.34H85.255C89.787,61.649,81.433,40.309,81.433,40.309ZM68.547,38.476a12.218,12.218,0,0,0-7.585,9.509c0,.019-.016.019-.019,0a12.218,12.218,0,0,0-7.585-9.509l4.168-4.139c-5.876-2.636-7.439-11.6-7.439-11.6a11.893,11.893,0,0,1-.372-2.182c2.942-.2,13.21-1.085,13.912-4.413.968,1.788,6.092,6.282,8.165,6.623,0,0-2.012,8.862-7.509,11.564Z" transform="translate(-35.302 -0.001)"/>
    </g>
  </g>
</svg>
