<svg id="multiple-users-silhouette_1_" data-name="multiple-users-silhouette(1)" xmlns="http://www.w3.org/2000/svg" viewBox="0 0 40.721 34.268">
  <defs>
    <style>
      .cls-1 {
        fill: #f9b126;
      }
    </style>
  </defs>
  <path id="Path_1153" data-name="Path 1153" class="cls-1" d="M24.573,12.23a7.4,7.4,0,0,1,3.443,5.5,5.97,5.97,0,1,0-3.443-5.5ZM20.661,24.458a5.972,5.972,0,1,0-5.973-5.972A5.972,5.972,0,0,0,20.661,24.458Zm2.533.407H18.126a7.656,7.656,0,0,0-7.647,7.647v6.2l.016.1.427.134a34.807,34.807,0,0,0,10.4,1.676,21.344,21.344,0,0,0,9.078-1.7l.4-.2h.043v-6.2A7.653,7.653,0,0,0,23.194,24.865ZM33.075,18.7H28.046a7.36,7.36,0,0,1-2.272,5.127,9.086,9.086,0,0,1,6.49,8.7v1.91a20.578,20.578,0,0,0,8.015-1.684l.4-.2h.043v-6.2A7.655,7.655,0,0,0,33.075,18.7Zm-22.893-.407a5.932,5.932,0,0,0,3.176-.922,7.391,7.391,0,0,1,2.778-4.714c.006-.112.017-.223.017-.335a5.972,5.972,0,1,0-5.971,5.971Zm5.363,5.533a7.364,7.364,0,0,1-2.27-5.1c-.187-.014-.371-.028-.561-.028H7.647A7.655,7.655,0,0,0,0,26.346v6.2l.016.1.427.135a35.852,35.852,0,0,0,8.611,1.619V32.521A9.088,9.088,0,0,1,15.545,23.826Z" transform="translate(0 -6.348)"/>
</svg>
