<svg xmlns="http://www.w3.org/2000/svg" viewBox="0 0 28.92 39.971">
  <defs>
    <style>
      .cls-1 {
        fill: #f9b126;
      }
    </style>
  </defs>
  <path id="Path_1140" data-name="Path 1140" class="cls-1" d="M90.892,1.381H89.467V.647a.647.647,0,1,0-1.295,0v.734H85.323V.647a.647.647,0,1,0-1.295,0v.734H81.18V.647a.647.647,0,0,0-1.295,0v.734H77.036V.647a.647.647,0,0,0-1.295,0v.734H72.892V.647a.647.647,0,0,0-1.295,0v.734H68.748V.647a.647.647,0,1,0-1.295,0v.734H66.029A2.031,2.031,0,0,0,64,3.41V37.942a2.031,2.031,0,0,0,2.029,2.029H90.892a2.031,2.031,0,0,0,2.029-2.029V3.41A2.031,2.031,0,0,0,90.892,1.381Zm.734,36.561a.735.735,0,0,1-.734.734H66.029a.735.735,0,0,1-.734-.734V3.41a.735.735,0,0,1,.734-.734h1.424V3.41a.647.647,0,1,0,1.295,0V2.676H71.6V3.41a.647.647,0,0,0,1.295,0V2.676h2.849V3.41a.647.647,0,0,0,1.295,0V2.676h2.849V3.41a.647.647,0,0,0,1.295,0V2.676h2.849V3.41a.647.647,0,1,0,1.295,0V2.676h2.849V3.41a.647.647,0,1,0,1.295,0V2.676h1.424a.735.735,0,0,1,.734.734Z" transform="translate(-64)"/>
</svg>
