<svg xmlns="http://www.w3.org/2000/svg" viewBox="0 0 36.443 44.657">
  <defs>
    <style>
      .cls-1 {
        fill: #387f8a;
      }
    </style>
  </defs>
  <path id="Path_1157" data-name="Path 1157" class="cls-1" d="M172.714,93.558c-.492-2.46-2.066-3.444-4.428-4.428a40,40,0,0,0-12.023-2.163A39.992,39.992,0,0,0,144.24,89.13c-2.361.984-3.936,1.968-4.427,4.428l-1.771,13.636v18.789h3.05v2.947a2.63,2.63,0,1,0,5.257,0v-2.947h19.828v2.947a2.63,2.63,0,1,0,5.257,0v-2.947h3.05V107.194Zm-23.948-3.149h14.994a1.107,1.107,0,0,1,0,2.214H148.766A1.107,1.107,0,0,1,148.766,90.409Zm-5.044,29.684a2.522,2.522,0,1,1,2.522-2.522A2.522,2.522,0,0,1,143.723,120.093Zm12.364-11.462H142.709c-1.31,0-1.584-.941-1.455-1.889l1.378-9.89c.189-1.2.6-1.994,2.156-1.994h22.952c1.559,0,1.966.792,2.156,1.994l1.378,9.89c.129.948-.146,1.889-1.455,1.889ZM168.8,120.093a2.522,2.522,0,1,1,2.522-2.522A2.522,2.522,0,0,1,168.8,120.093Z" transform="translate(-138.042 -86.967)"/>
</svg>
