<svg id="phone-receiver_1_" data-name="phone-receiver (1)" xmlns="http://www.w3.org/2000/svg" viewBox="0 0 23.09 23.075">
  <defs>
    <style>
      .cls-1 {
        fill: #f9b126;
      }
    </style>
  </defs>
  <g id="Group_92" data-name="Group 92" transform="translate(0 0)">
    <path id="Path_82" data-name="Path 82" class="cls-1" d="M23.079,18.4a1.116,1.116,0,0,1-.342.978L19.486,22.6a1.83,1.83,0,0,1-.574.416,2.374,2.374,0,0,1-.7.22q-.024,0-.147.012t-.318.012a11.269,11.269,0,0,1-1.5-.159,11.417,11.417,0,0,1-2.542-.782,21.338,21.338,0,0,1-3.41-1.87A25.423,25.423,0,0,1,6.237,17.03,26.786,26.786,0,0,1,3.4,13.8a22.989,22.989,0,0,1-1.809-2.848A15.337,15.337,0,0,1,.566,8.584,12.58,12.58,0,0,1,.1,6.751,6.054,6.054,0,0,1,0,5.541q.024-.44.024-.489a2.376,2.376,0,0,1,.22-.7,1.832,1.832,0,0,1,.416-.574L3.915.53A1.077,1.077,0,0,1,4.7.188a.912.912,0,0,1,.562.183,1.7,1.7,0,0,1,.416.452L8.29,5.786a1.19,1.19,0,0,1,.122.856A1.524,1.524,0,0,1,8,7.423l-1.2,1.2a.408.408,0,0,0-.086.159.6.6,0,0,0-.037.183,4.414,4.414,0,0,0,.44,1.173,10.771,10.771,0,0,0,.9,1.43A15.877,15.877,0,0,0,9.757,13.51a16.191,16.191,0,0,0,1.955,1.748,11.292,11.292,0,0,0,1.43.917,3.8,3.8,0,0,0,.88.354l.305.061a.583.583,0,0,0,.159-.037.408.408,0,0,0,.159-.086l1.393-1.418a1.5,1.5,0,0,1,1.027-.391,1.277,1.277,0,0,1,.66.147h.024l4.718,2.787A1.23,1.23,0,0,1,23.079,18.4Z" transform="translate(0 -0.188)"/>
  </g>
</svg>
