<svg xmlns="http://www.w3.org/2000/svg" viewBox="0 0 44.998 44.998">
  <defs>
    <style>
      .cls-1 {
        fill: #387f8a;
      }
    </style>
  </defs>
  <path id="Subtraction_1" data-name="Subtraction 1" class="cls-1" d="M43,45H2a2,2,0,0,1-2-2V2A2,2,0,0,1,2,0H43a2,2,0,0,1,2,2V43A2,2,0,0,1,43,45ZM8.269,4.047v36.9h9.517v-12.8h6.278c4.675,0,8.31-1.048,10.8-3.115,2.509-2.083,3.782-5.093,3.782-8.948,0-3.838-1.272-6.831-3.782-8.9-2.493-2.083-6.128-3.139-10.8-3.139Zm14.782,17.2H17.786V10.944h5.265a6.269,6.269,0,0,1,4.276,1.335,4.834,4.834,0,0,1,1.507,3.806,4.914,4.914,0,0,1-1.507,3.831A6.269,6.269,0,0,1,23.051,21.251Z"/>
</svg>
