<svg xmlns="http://www.w3.org/2000/svg" viewBox="0 0 16.49 16.336">
  <defs>
    <style>
      .cls-1 {
        fill: #56c7d3;
      }
    </style>
  </defs>
  <g id="user-silhouette" transform="translate(0.001 -1.916)">
    <g id="Group_87" data-name="Group 87" transform="translate(-0.001 1.916)">
      <path id="Path_78" data-name="Path 78" class="cls-1" d="M116.54,10.571c2.042,0,3.7-1.938,3.7-4.328,0-3.314-1.655-4.328-3.7-4.328s-3.7,1.013-3.7,4.328C112.843,8.634,114.5,10.571,116.54,10.571Z" transform="translate(-108.295 -1.916)"/>
      <path id="Path_79" data-name="Path 79" class="cls-1" d="M16.409,227.581l-1.865-4.2a.936.936,0,0,0-.422-.449l-2.895-1.507a.187.187,0,0,0-.2.017,4.567,4.567,0,0,1-5.568,0,.187.187,0,0,0-.2-.017L2.367,222.93a.936.936,0,0,0-.422.449l-1.865,4.2a.933.933,0,0,0,.852,1.311H15.557a.933.933,0,0,0,.852-1.311Z" transform="translate(0.001 -212.557)"/>
    </g>
  </g>
</svg>
