<svg id="Group_97" data-name="Group 97" xmlns="http://www.w3.org/2000/svg" viewBox="0 0 195.296 241.259">
  <defs>
    <style>
      .cls-1 {
        fill: #387f8a;
      }

      .cls-2 {
        fill: #56c7d3;
      }

      .cls-3 {
        fill: #fefefe;
      }

      .cls-4 {
        fill: #231f1f;
      }

      .cls-5 {
        fill: #f9b126;
      }

      .cls-6 {
        fill: #383536;
      }

      .cls-7 {
        fill: none;
        fill-rule: evenodd;
      }
    </style>
  </defs>
  <path id="Path_32" data-name="Path 32" class="cls-1" d="M108.731,0A102,102,0,0,1,55.074,13.612h0A101.69,101.69,0,0,1,1.417,0s-4.34,31.76,2.17,54.052c0,0,14.006-32.549,51.487-40.44,37.481,7.891,51.487,40.44,51.487,40.44C112.874,31.76,108.731,0,108.731,0" transform="translate(42.574 73.384)"/>
  <path id="Path_33" data-name="Path 33" class="cls-2" d="M0,56.616a56.616,56.616,0,1,1,113.232,0c0,31.168-25.448,76.146-56.616,76.146S0,87.982,0,56.616" transform="translate(40.835 76.935)"/>
  <path id="Path_34" data-name="Path 34" class="cls-1" d="M82,18.938C79.435,7.891,70.361,0,60.5,0a16.431,16.431,0,0,0-4.34.592A19.628,19.628,0,0,0,43.335,11.244a22.177,22.177,0,0,0-1.973,6.115,31.641,31.641,0,0,0-1.973-6.115A19.627,19.627,0,0,0,26.567.592,15.384,15.384,0,0,0,22.227,0C12.364,0,3.289,7.891.725,18.938A26.663,26.663,0,0,0,2.5,36.495,19.627,19.627,0,0,0,15.323,47.147a15.386,15.386,0,0,0,4.34.592h0c9.863,0,18.938-7.891,21.5-18.938,0-.395.2-.789.2-1.184,0,.395.2.789.2,1.184,2.564,10.85,11.639,18.74,21.5,18.74a16.431,16.431,0,0,0,4.34-.592A19.627,19.627,0,0,0,80.224,36.3,24.7,24.7,0,0,0,82,18.938" transform="translate(56.286 94.492)"/>
  <path id="Path_35" data-name="Path 35" class="cls-3" d="M32.815,15.589C35.38,26.044,30.251,36.3,21.374,38.472S3.225,33.738.661,23.282,3.225,2.569,12.1.4s18.149,4.734,20.713,15.19" transform="translate(101.327 100.997)"/>
  <path id="Path_36" data-name="Path 36" class="cls-3" d="M.661,15.589C-1.9,26.044,3.225,36.3,12.1,38.472s18.149-4.734,20.713-15.19S30.251,2.569,21.374.4,3.225,5.134.661,15.589" transform="translate(60.295 100.997)"/>
  <path id="Path_37" data-name="Path 37" class="cls-4" d="M20.066,42.807c-8.68,0-16.965-7.1-19.332-17.162A23.276,23.276,0,0,1,2.312,9.666,16.911,16.911,0,0,1,13.556.395,24.169,24.169,0,0,1,17.3,0c8.68,0,16.768,7.1,19.332,17.162a23.277,23.277,0,0,1-1.578,15.979,16.912,16.912,0,0,1-11.244,9.272,12.139,12.139,0,0,1-3.748.395M17.5,3.945a11.644,11.644,0,0,0-2.762.395,13.3,13.3,0,0,0-8.68,7.3A20.151,20.151,0,0,0,4.679,24.856c1.973,8.285,8.483,14.2,15.387,14.2a11.643,11.643,0,0,0,2.762-.395,13.3,13.3,0,0,0,8.68-7.3,20.151,20.151,0,0,0,1.381-13.217c-1.973-8.285-8.483-14.2-15.387-14.2Z" transform="translate(99.281 99.029)"/>
  <path id="Path_38" data-name="Path 38" class="cls-4" d="M17.3,42.807a24.171,24.171,0,0,1-3.748-.395A17.014,17.014,0,0,1,2.312,33.141,23.276,23.276,0,0,1,.734,17.162C3.1,7.3,11.189,0,20.066,0a24.168,24.168,0,0,1,3.748.395A17.014,17.014,0,0,1,35.058,9.666a23.276,23.276,0,0,1,1.578,15.979C34.072,35.706,25.984,42.807,17.3,42.807M19.869,3.945c-6.9,0-13.414,5.918-15.387,14.2A18.743,18.743,0,0,0,5.863,31.366a13.766,13.766,0,0,0,8.68,7.3,15.476,15.476,0,0,0,2.762.395c6.9,0,13.414-5.918,15.387-14.2A18.744,18.744,0,0,0,31.31,11.639a13.767,13.767,0,0,0-8.68-7.3A6.27,6.27,0,0,0,19.869,3.945Z" transform="translate(58.447 99.029)"/>
  <path id="Path_39" data-name="Path 39" class="cls-4" d="M11.3,5.277A3.484,3.484,0,0,1,7.355,2.318a4.036,4.036,0,0,1,0-2.17,5.612,5.612,0,0,0-2.564,0C1.24.937-.733,5.08.253,9.42c.986,4.143,4.734,6.9,8.285,6.115s5.524-4.932,4.537-9.272l-.592-1.775a1.811,1.811,0,0,1-1.184.789" transform="translate(105.877 116.043)"/>
  <path id="Path_40" data-name="Path 40" class="cls-4" d="M2.029,5.277A3.484,3.484,0,0,0,5.974,2.318a4.034,4.034,0,0,0,0-2.17,5.613,5.613,0,0,1,2.565,0C12.09.937,14.062,5.08,13.076,9.42c-.986,4.143-4.734,6.9-8.285,6.115S-.733,10.6.253,6.263L.845,4.488a4.126,4.126,0,0,0,1.184.789" transform="translate(75.695 116.043)"/>
  <path id="Path_41" data-name="Path 41" class="cls-5" d="M19.53,0,9.666,16.373,0,0H19.53" transform="translate(87.784 138.877)"/>
  <path id="Path_42" data-name="Path 42" class="cls-1" d="M0,0S2.565,1.578,4.734,0C4.537,0,2.17,3.945,0,0" transform="translate(72.595 168.664)"/>
  <path id="Path_43" data-name="Path 43" class="cls-1" d="M0,0S2.565,1.578,4.734,0C4.734,0,2.367,3.945,0,0" transform="translate(82.458 168.664)"/>
  <path id="Path_44" data-name="Path 44" class="cls-1" d="M0,0S2.564,1.578,4.734,0C4.537,0,2.17,3.945,0,0" transform="translate(92.519 168.664)"/>
  <path id="Path_45" data-name="Path 45" class="cls-1" d="M0,0S2.564,1.578,4.734,0C4.734,0,2.367,3.945,0,0" transform="translate(102.382 168.664)"/>
  <path id="Path_46" data-name="Path 46" class="cls-1" d="M0,0S2.564,1.578,4.734,0C4.537,0,2.17,3.945,0,0" transform="translate(112.443 168.664)"/>
  <path id="Path_47" data-name="Path 47" class="cls-1" d="M0,0S2.564,1.578,4.734,0C4.734,0,2.367,3.945,0,0" transform="translate(122.306 168.664)"/>
  <path id="Path_48" data-name="Path 48" class="cls-1" d="M0,0S2.565,1.578,4.734,0C4.734,0,2.367,3.945,0,0" transform="translate(77.132 175.766)"/>
  <path id="Path_49" data-name="Path 49" class="cls-1" d="M0,0S2.565,1.578,4.734,0C4.537,0,2.17,3.945,0,0" transform="translate(87.193 175.766)"/>
  <path id="Path_50" data-name="Path 50" class="cls-1" d="M0,0S2.565,1.578,4.734,0C4.735,0,2.367,3.945,0,0" transform="translate(97.056 175.766)"/>
  <path id="Path_51" data-name="Path 51" class="cls-1" d="M0,0S2.565,1.578,4.734,0C4.537,0,2.17,3.945,0,0" transform="translate(107.117 175.766)"/>
  <path id="Path_52" data-name="Path 52" class="cls-1" d="M0,0S2.565,1.578,4.734,0C4.734,0,2.367,3.945,0,0" transform="translate(116.98 175.766)"/>
  <path id="Path_53" data-name="Path 53" class="cls-1" d="M0,0S2.564,1.578,4.734,0C4.734,0,2.367,3.945,0,0" transform="translate(80.683 182.276)"/>
  <path id="Path_54" data-name="Path 54" class="cls-1" d="M0,0S2.564,1.578,4.734,0C4.734,0,2.17,3.945,0,0" transform="translate(90.743 182.276)"/>
  <path id="Path_55" data-name="Path 55" class="cls-1" d="M0,0S2.564,1.578,4.734,0C4.734,0,2.367,3.945,0,0" transform="translate(100.607 182.276)"/>
  <path id="Path_56" data-name="Path 56" class="cls-1" d="M0,0S2.564,1.578,4.734,0C4.734,0,2.367,3.945,0,0" transform="translate(110.668 182.276)"/>
  <path id="Path_57" data-name="Path 57" class="cls-1" d="M0,0S2.564,1.578,4.734,0C4.734,0,2.367,3.748,0,0" transform="translate(85.023 188.194)"/>
  <path id="Path_58" data-name="Path 58" class="cls-1" d="M0,0S2.564,1.578,4.734,0C4.734,0,2.17,3.748,0,0" transform="translate(95.083 188.194)"/>
  <path id="Path_59" data-name="Path 59" class="cls-1" d="M0,0S2.565,1.578,4.734,0C4.734,0,2.367,3.748,0,0" transform="translate(104.947 188.194)"/>
  <path id="Path_60" data-name="Path 60" class="cls-1" d="M0,0S2.565,1.578,4.734,0C4.537,0,2.17,3.748,0,0" transform="translate(88.968 193.717)"/>
  <path id="Path_61" data-name="Path 61" class="cls-1" d="M0,0S2.565,1.578,4.735,0C4.735,0,2.367,3.748,0,0" transform="translate(98.831 193.717)"/>
  <path id="Path_62" data-name="Path 62" class="cls-1" d="M0,0S2.565,1.578,4.734,0C4.537,0,2.17,3.945,0,0" transform="translate(94.294 199.636)"/>
  <path id="Path_63" data-name="Path 63" class="cls-4" d="M.986,0l72,27.026L0,58.391" transform="translate(96.661 23.08)"/>
  <path id="Path_64" data-name="Path 64" class="cls-4" d="M71.017,58.391,0,27.026,72,0" transform="translate(25.645 23.08)"/>
  <path id="Path_65" data-name="Path 65" class="cls-6" d="M40.637,18.346,0,.395v31.76a23.849,23.849,0,0,1,17.951-8.285c8.285,0,19.332,4.143,23.475,10.653C45.569,28.209,56.813,23.869,65.1,23.869a24.273,24.273,0,0,1,18.149,8.285V0L40.637,18.346" transform="translate(56.024 62.731)"/>
  <path id="Path_66" data-name="Path 66" class="cls-5" d="M6.51,50.5V13.02L47.344,1.973,46.753,0,4.34,11.442V50.5C2.762,51.684,0,55.038,0,65.69H10.85c.2-10.455-2.762-14.006-4.34-15.19" transform="translate(50.501 51.29)"/>
  <path id="Path_67" data-name="Path 67" class="cls-1" d="M12.231.863C17.557-1.5,31.366.666,34.719,11.516,40.243,29.27,19.332,54.52,0,50.181A16.957,16.957,0,0,0,4.143,31.046C-.592,19.6-.592,6.387,12.231.863" transform="translate(127.435 136.633)"/>
  <path id="Path_68" data-name="Path 68" class="cls-1" d="M23.325.756C18-1.414,4.19.756.836,11.606-4.49,29.36,16.618,54.413,35.95,49.876c0,0-8.877-7.5-4.34-18.938C36.147,19.3,36.147,6.082,23.325.756" transform="translate(31.91 137.332)"/>
  <path id="Path_69" data-name="Path 69" class="cls-5" d="M7.1,9.666a3.551,3.551,0,1,1-7.1,0V3.551a3.551,3.551,0,1,1,7.1,0V9.666" transform="translate(101.199 204.962)"/>
  <path id="Path_70" data-name="Path 70" class="cls-5" d="M7.1,9.666a3.551,3.551,0,1,1-7.1,0V3.551a3.551,3.551,0,1,1,7.1,0V9.666" transform="translate(107.906 201.214)"/>
  <path id="Path_71" data-name="Path 71" class="cls-5" d="M7.1,9.666a3.551,3.551,0,1,1-7.1,0V3.551a3.551,3.551,0,1,1,7.1,0V9.666" transform="translate(114.613 197.268)"/>
  <path id="Path_72" data-name="Path 72" class="cls-5" d="M0,9.666a3.551,3.551,0,1,0,7.1,0V3.551a3.551,3.551,0,1,0-7.1,0V9.666" transform="translate(86.995 204.962)"/>
  <path id="Path_73" data-name="Path 73" class="cls-5" d="M0,9.666a3.551,3.551,0,0,0,7.1,0V3.551a3.551,3.551,0,1,0-7.1,0V9.666" transform="translate(80.288 201.214)"/>
  <path id="Path_74" data-name="Path 74" class="cls-5" d="M0,9.666a3.551,3.551,0,1,0,7.1,0V3.551a3.551,3.551,0,1,0-7.1,0V9.666" transform="translate(73.581 197.268)"/>
  <rect id="Rectangle_28" data-name="Rectangle 28" class="cls-4" width="8.285" height="5.524" transform="translate(93.505 115.797)"/>
  <path id="Path_75" data-name="Path 75" class="cls-4" d="M19.53,2.762a2.821,2.821,0,0,1-2.762,2.762H2.762A2.821,2.821,0,0,1,0,2.762,2.821,2.821,0,0,1,2.762,0H16.768A2.7,2.7,0,0,1,19.53,2.762" transform="translate(133.353 116.191)"/>
  <path id="Path_76" data-name="Path 76" class="cls-4" d="M19.53,2.762a2.821,2.821,0,0,1-2.762,2.762H2.762A2.821,2.821,0,0,1,0,2.762,2.821,2.821,0,0,1,2.762,0H16.768A2.7,2.7,0,0,1,19.53,2.762" transform="translate(42.413 116.191)"/>
  <path id="Path_77" data-name="Path 77" class="cls-7" d="M195.3,0V241.259H0V0" transform="translate(0 0)"/>
</svg>
