<svg id="Group_775" data-name="Group 775" xmlns="http://www.w3.org/2000/svg" xmlns:xlink="http://www.w3.org/1999/xlink" viewBox="0 0 336.992 336.992">
  <defs>
    <style>
      .cls-1 {
        fill: #fff;
      }

      .cls-2, .cls-6 {
        clip-path: url(#clip-path);
      }

      .cls-3 {
        fill: #da5e80;
      }

      .cls-4 {
        fill: #d9d9d9;
      }

      .cls-5 {
        fill: #bbbdbf;
      }

      .cls-6 {
        opacity: 0.2;
      }

      .cls-7 {
        clip-path: url(#clip-path-15);
      }

      .cls-8 {
        fill: #f8a784;
      }

      .cls-11, .cls-9 {
        fill: #373953;
      }

      .cls-10 {
        clip-path: url(#clip-path-25);
      }

      .cls-11, .cls-13 {
        font-size: 37px;
        font-family: EmilysCandy-Regular, Emilys Candy;
      }

      .cls-12 {
        clip-path: url(#clip-path-27);
      }

      .cls-13 {
        fill: #273f5a;
      }

      .cls-14 {
        clip-path: url(#clip-path-32);
      }

      .cls-15 {
        fill: #387f8a;
      }

      .cls-16 {
        fill: #56c7d3;
      }

      .cls-17 {
        fill: #fefefe;
      }

      .cls-18 {
        fill: #231f1f;
      }

      .cls-19 {
        fill: #f9b126;
      }

      .cls-20 {
        fill: #383536;
      }

      .cls-21 {
        clip-path: url(#clip-path-74);
      }
    </style>
    <clipPath id="clip-path">
      <rect id="Rectangle_229" data-name="Rectangle 229" width="315.424" height="23.634"/>
    </clipPath>
    <clipPath id="clip-path-15">
      <rect id="Rectangle_242" data-name="Rectangle 242" width="15.277" height="21.567"/>
    </clipPath>
    <clipPath id="clip-path-25">
      <rect id="Rectangle_253" data-name="Rectangle 253" class="cls-1" width="315.424" height="23.634"/>
    </clipPath>
    <clipPath id="clip-path-27">
      <rect id="Rectangle_256" data-name="Rectangle 256" width="336.992" height="336.992"/>
    </clipPath>
    <clipPath id="clip-path-32">
      <rect id="Rectangle_261" data-name="Rectangle 261" width="88.966" height="109.904"/>
    </clipPath>
    <clipPath id="clip-path-74">
      <rect id="Rectangle_304" data-name="Rectangle 304" width="88.966" height="109.904" transform="translate(0 0)"/>
    </clipPath>
  </defs>
  <g id="Group_686" data-name="Group 686" transform="translate(10.784 195.455)">
    <g id="Group_659" data-name="Group 659" class="cls-2">
      <path id="Path_1158" data-name="Path 1158" class="cls-1" d="M62.59,225.6H62.5v2.426H286.622V225.6H62.59Z" transform="translate(-17.118 -218.321)"/>
    </g>
    <g id="Group_660" data-name="Group 660" class="cls-2">
      <path id="Path_1159" data-name="Path 1159" class="cls-1" d="M62.59,220.855H286.622V217.8H62.5v3.055Z" transform="translate(-17.118 -217.53)"/>
    </g>
    <g id="Group_661" data-name="Group 661" class="cls-2">
      <path id="Path_1160" data-name="Path 1160" class="cls-1" d="M62.59,232.6H62.5v3.055H286.622V232.6H62.59Z" transform="translate(-17.118 -219.03)"/>
    </g>
    <g id="Group_662" data-name="Group 662" class="cls-2">
      <path id="Path_1161" data-name="Path 1161" class="cls-1" d="M286.622,240.4H62.5v3.325H286.622V240.4Z" transform="translate(-17.118 -219.821)"/>
    </g>
    <g id="Group_663" data-name="Group 663" class="cls-2">
      <path id="Path_1162" data-name="Path 1162" class="cls-1" d="M62.59,221.2H62.5v3.954H286.622V221.2H62.59Z" transform="translate(-17.118 -217.875)"/>
    </g>
    <g id="Group_664" data-name="Group 664" class="cls-2">
      <path id="Path_1163" data-name="Path 1163" class="cls-1" d="M62.59,228.3H62.5v3.954H286.622V228.3H62.59Z" transform="translate(-17.118 -218.595)"/>
    </g>
    <g id="Group_665" data-name="Group 665" class="cls-2">
      <path id="Path_1164" data-name="Path 1164" class="cls-1" d="M62.59,236H62.5v3.954H286.622V236H62.59Z" transform="translate(-17.118 -219.375)"/>
    </g>
    <g id="Group_666" data-name="Group 666" class="cls-2">
      <path id="Path_1165" data-name="Path 1165" class="cls-3" d="M17.163,217.8a4.834,4.834,0,0,0-4.763,4.943v13.749a4.834,4.834,0,0,0,4.763,4.943H33.249V217.8Z" transform="translate(-12.041 -217.53)"/>
    </g>
    <g id="Group_667" data-name="Group 667" class="cls-2">
      <path id="Path_1166" data-name="Path 1166" class="cls-4" d="M60.174,236.122a2.057,2.057,0,0,1,1.977-1.977V231.09a2,2,0,0,1-1.977-1.977,2.057,2.057,0,0,1,1.977-1.977v-2.426a2,2,0,0,1-1.977-1.977,2.057,2.057,0,0,1,1.977-1.977V217.7H56.4v23.634h5.751v-3.325A1.919,1.919,0,0,1,60.174,236.122Z" transform="translate(-16.5 -217.52)"/>
    </g>
    <g id="Group_668" data-name="Group 668" class="cls-2">
      <path id="Path_1167" data-name="Path 1167" class="cls-5" d="M52.225,238.2a1.351,1.351,0,1,1-2.7,0V220.855a1.351,1.351,0,1,1,2.7,0Zm-5.751,0a1.531,1.531,0,0,1-3.055,0V220.855a1.531,1.531,0,0,1,3.055,0Zm-5.392,0a1.531,1.531,0,0,1-3.055,0V220.855a1.531,1.531,0,0,1,3.055,0ZM51.6,217.8h-16v23.634H54.292V217.8Z" transform="translate(-14.392 -217.53)"/>
    </g>
    <g id="Group_669" data-name="Group 669" class="cls-2">
      <path id="Path_1168" data-name="Path 1168" class="cls-5" d="M52.448,219.6a1.347,1.347,0,0,0-1.348,1.438v17.344a1.351,1.351,0,1,0,2.7,0V221.038A1.4,1.4,0,0,0,52.448,219.6Z" transform="translate(-15.963 -217.713)"/>
    </g>
    <g id="Group_670" data-name="Group 670" class="cls-2">
      <path id="Path_1169" data-name="Path 1169" class="cls-5" d="M45.828,219.6a1.5,1.5,0,0,0-1.528,1.438v17.344a1.531,1.531,0,0,0,3.055,0V221.038A1.562,1.562,0,0,0,45.828,219.6Z" transform="translate(-15.274 -217.713)"/>
    </g>
    <g id="Group_671" data-name="Group 671" class="cls-2">
      <path id="Path_1170" data-name="Path 1170" class="cls-5" d="M39.828,219.6a1.5,1.5,0,0,0-1.528,1.438v17.344a1.531,1.531,0,0,0,3.055,0V221.038A1.562,1.562,0,0,0,39.828,219.6Z" transform="translate(-14.666 -217.713)"/>
    </g>
    <g id="Group_676" data-name="Group 676" class="cls-6">
      <g id="Group_675" data-name="Group 675" transform="translate(23.365 1.348)">
        <g id="Group_672" data-name="Group 672" class="cls-7">
          <path id="Path_1171" data-name="Path 1171" d="M52.448,219.6a1.347,1.347,0,0,0-1.348,1.438v17.344a1.351,1.351,0,1,0,2.7,0V221.038A1.4,1.4,0,0,0,52.448,219.6Z" transform="translate(-39.328 -219.061)"/>
        </g>
        <g id="Group_673" data-name="Group 673" class="cls-7">
          <path id="Path_1172" data-name="Path 1172" d="M45.828,219.6a1.5,1.5,0,0,0-1.528,1.438v17.344a1.531,1.531,0,0,0,3.055,0V221.038A1.562,1.562,0,0,0,45.828,219.6Z" transform="translate(-38.639 -219.061)"/>
        </g>
        <g id="Group_674" data-name="Group 674" class="cls-7">
          <path id="Path_1173" data-name="Path 1173" d="M39.828,219.6a1.5,1.5,0,0,0-1.528,1.438v17.344a1.531,1.531,0,0,0,3.055,0V221.038A1.562,1.562,0,0,0,39.828,219.6Z" transform="translate(-38.03 -219.061)"/>
        </g>
      </g>
    </g>
    <g id="Group_677" data-name="Group 677" class="cls-2">
      <path id="Path_1174" data-name="Path 1174" class="cls-4" d="M60.6,223.177a2.057,2.057,0,0,0,1.977,1.977V221.2A2.057,2.057,0,0,0,60.6,223.177Z" transform="translate(-16.926 -217.875)"/>
    </g>
    <g id="Group_678" data-name="Group 678" class="cls-2">
      <path id="Path_1175" data-name="Path 1175" class="cls-4" d="M60.6,230.277a2.057,2.057,0,0,0,1.977,1.977V228.3A2,2,0,0,0,60.6,230.277Z" transform="translate(-16.926 -218.595)"/>
    </g>
    <g id="Group_679" data-name="Group 679" class="cls-2">
      <path id="Path_1176" data-name="Path 1176" class="cls-4" d="M60.6,237.977a2.057,2.057,0,0,0,1.977,1.977V236A2.057,2.057,0,0,0,60.6,237.977Z" transform="translate(-16.926 -219.375)"/>
    </g>
    <g id="Group_680" data-name="Group 680" class="cls-2">
      <path id="Path_1177" data-name="Path 1177" class="cls-8" d="M350.334,225.449C337.843,221.4,313.58,217.9,313.58,217.9h-.09a4.8,4.8,0,0,1,4.314,4.853V236.5a4.751,4.751,0,0,1-4.4,4.853h.18c2.426,0,26.24-3.684,37.833-7.728-3.684-.809-6.2-2.426-6.2-4.224C345.122,227.785,347.189,226.257,350.334,225.449Z" transform="translate(-42.548 -217.541)"/>
    </g>
    <g id="Group_681" data-name="Group 681" class="cls-2">
      <path id="Path_1178" data-name="Path 1178" class="cls-9" d="M353.912,226.3c-3.145.809-5.212,2.336-5.212,4.044,0,1.887,2.516,3.5,6.291,4.224,3.774-1.348,6.29-2.7,6.29-4.044C361.191,229.086,358.315,227.648,353.912,226.3Z" transform="translate(-46.126 -218.392)"/>
    </g>
    <g id="Group_682" data-name="Group 682" class="cls-2">
      <path id="Path_1179" data-name="Path 1179" class="cls-1" d="M317.621,236.5V222.753a4.805,4.805,0,0,0-4.314-4.853H311.6v3.055a1.979,1.979,0,1,1,0,3.954v2.426a1.979,1.979,0,1,1,0,3.954v3.055a1.979,1.979,0,1,1,0,3.954v3.325h1.618A5.211,5.211,0,0,0,317.621,236.5Z" transform="translate(-42.366 -217.541)"/>
    </g>
    <g id="Group_683" data-name="Group 683" class="cls-2">
      <path id="Path_1180" data-name="Path 1180" class="cls-1" d="M313.667,223.177A2.015,2.015,0,0,0,311.6,221.2v3.954A2.015,2.015,0,0,0,313.667,223.177Z" transform="translate(-42.366 -217.875)"/>
    </g>
    <g id="Group_684" data-name="Group 684" class="cls-10">
      <path id="Path_1181" data-name="Path 1181" class="cls-1" d="M313.667,230.277A2.015,2.015,0,0,0,311.6,228.3v3.954A2.075,2.075,0,0,0,313.667,230.277Z" transform="translate(-42.366 -218.595)"/>
    </g>
    <g id="Group_685" data-name="Group 685" class="cls-2">
      <path id="Path_1182" data-name="Path 1182" class="cls-1" d="M313.667,237.977A2.015,2.015,0,0,0,311.6,236v3.954A2.015,2.015,0,0,0,313.667,237.977Z" transform="translate(-42.366 -219.375)"/>
    </g>
  </g>
  <g id="Group_693" data-name="Group 693">
    <g id="Group_776" data-name="Group 776" transform="translate(18.282 148.501)">
      <text id="I" class="cls-11" transform="translate(0 36)"><tspan x="0" y="0">I</tspan></text>
    </g>
    <g id="Group_688" data-name="Group 688" class="cls-12">
      <text id="Š" class="cls-13" transform="translate(32.035 184.501)"><tspan x="0" y="0">Š</tspan></text>
    </g>
    <g id="Group_689" data-name="Group 689" class="cls-12">
      <text id="M" class="cls-11" transform="translate(54.688 184.501)"><tspan x="0" y="0">M</tspan></text>
    </g>
    <g id="Group_690" data-name="Group 690" class="cls-12">
      <text id="O" class="cls-11" transform="translate(88.281 184.501)"><tspan x="0" y="0">O</tspan></text>
    </g>
    <g id="Group_691" data-name="Group 691" class="cls-12">
      <text id="K" class="cls-11" transform="translate(119.108 184.501)"><tspan x="0" y="0">K</tspan></text>
    </g>
    <g id="Group_692" data-name="Group 692" class="cls-12">
      <text id="O-2" data-name="O" class="cls-11" transform="translate(145.865 184.501)"><tspan x="0" y="0">O</tspan></text>
    </g>
  </g>
  <g id="Group_739" data-name="Group 739" transform="translate(165.8 99.121)">
    <g id="Group_694" data-name="Group 694" class="cls-14">
      <path id="Path_1183" data-name="Path 1183" class="cls-15" d="M255.613,147.5a46.467,46.467,0,0,1-24.443,6.2h0a46.324,46.324,0,0,1-24.443-6.2s-1.977,14.468.989,24.623c0,0,6.38-14.828,23.455-18.422,17.074,3.595,23.455,18.422,23.455,18.422,2.876-10.155.988-24.623.988-24.623" transform="translate(-186.687 -114.07)"/>
    </g>
    <g id="Group_695" data-name="Group 695" class="cls-14">
      <path id="Path_1184" data-name="Path 1184" class="cls-16" d="M205.2,175.091a25.791,25.791,0,0,1,51.582,0c0,14.2-11.593,34.688-25.791,34.688S205.2,189.29,205.2,175.091" transform="translate(-186.598 -114.253)"/>
    </g>
    <g id="Group_696" data-name="Group 696" class="cls-14">
      <path id="Path_1185" data-name="Path 1185" class="cls-15" d="M250.387,166.827c-1.168-5.032-5.3-8.627-9.8-8.627a7.485,7.485,0,0,0-1.977.27,8.941,8.941,0,0,0-5.841,4.853,10.1,10.1,0,0,0-.9,2.786,14.414,14.414,0,0,0-.9-2.786,8.941,8.941,0,0,0-5.841-4.853,7.008,7.008,0,0,0-1.977-.27c-4.493,0-8.627,3.595-9.8,8.627a12.146,12.146,0,0,0,.809,8,8.941,8.941,0,0,0,5.841,4.853,7.008,7.008,0,0,0,1.977.27h0c4.493,0,8.627-3.595,9.8-8.627,0-.18.09-.359.09-.539,0,.18.09.359.09.539,1.168,5.032,5.3,8.627,9.8,8.627a7.485,7.485,0,0,0,1.977-.27,8.941,8.941,0,0,0,5.841-4.853,11.612,11.612,0,0,0,.809-8" transform="translate(-187.392 -115.155)"/>
    </g>
    <g id="Group_697" data-name="Group 697" class="cls-14">
      <path id="Path_1186" data-name="Path 1186" class="cls-17" d="M250.814,168.6c1.168,4.763-1.168,9.436-5.212,10.424s-8.268-2.157-9.436-6.92,1.168-9.436,5.212-10.424,8.268,2.067,9.436,6.92" transform="translate(-189.706 -115.489)"/>
    </g>
    <g id="Group_698" data-name="Group 698" class="cls-14">
      <path id="Path_1187" data-name="Path 1187" class="cls-17" d="M215.366,168.6c-1.168,4.763,1.168,9.436,5.212,10.424s8.268-2.157,9.436-6.92-1.168-9.436-5.212-10.424-8.268,2.067-9.436,6.92" transform="translate(-187.598 -115.489)"/>
    </g>
    <g id="Group_699" data-name="Group 699" class="cls-14">
      <path id="Path_1188" data-name="Path 1188" class="cls-18" d="M243.969,180c-3.954,0-7.728-3.235-8.807-7.818a10.6,10.6,0,0,1,.719-7.279A7.7,7.7,0,0,1,241,160.68a11.01,11.01,0,0,1,1.707-.18c3.954,0,7.638,3.235,8.807,7.818a10.6,10.6,0,0,1-.719,7.279,7.7,7.7,0,0,1-5.122,4.224,11.009,11.009,0,0,1-1.707.18M242.8,162.207a5.3,5.3,0,0,0-1.258.18,6.06,6.06,0,0,0-3.954,3.325,9.18,9.18,0,0,0-.629,6.021c.9,3.774,3.864,6.47,7.009,6.47a5.3,5.3,0,0,0,1.258-.18,6.06,6.06,0,0,0,3.954-3.325,9.18,9.18,0,0,0,.629-6.021c-.9-3.684-3.864-6.47-7.009-6.47Z" transform="translate(-189.601 -115.388)"/>
    </g>
    <g id="Group_700" data-name="Group 700" class="cls-14">
      <path id="Path_1189" data-name="Path 1189" class="cls-18" d="M222.011,180a11.009,11.009,0,0,1-1.707-.18,7.75,7.75,0,0,1-5.122-4.224,10.6,10.6,0,0,1-.719-7.279c1.078-4.493,4.763-7.818,8.807-7.818a11.013,11.013,0,0,1,1.707.18A7.75,7.75,0,0,1,230.1,164.9a10.6,10.6,0,0,1,.719,7.279c-1.168,4.493-4.853,7.818-8.807,7.818m1.168-17.793c-3.145,0-6.111,2.7-7.009,6.47a8.538,8.538,0,0,0,.629,6.021,6.271,6.271,0,0,0,3.954,3.325,7.048,7.048,0,0,0,1.258.18c3.145,0,6.111-2.7,7.009-6.47a8.538,8.538,0,0,0-.629-6.021,6.271,6.271,0,0,0-3.954-3.325A5.3,5.3,0,0,0,223.179,162.207Z" transform="translate(-187.503 -115.388)"/>
    </g>
    <g id="Group_701" data-name="Group 701" class="cls-14">
      <path id="Path_1190" data-name="Path 1190" class="cls-18" d="M243.319,171.529a1.587,1.587,0,0,1-1.8-1.348,1.838,1.838,0,0,1,0-.989,2.556,2.556,0,0,0-1.168,0c-1.618.359-2.516,2.247-2.067,4.224a3.393,3.393,0,0,0,3.774,2.786c1.618-.359,2.516-2.247,2.067-4.224l-.27-.809a.825.825,0,0,1-.539.359" transform="translate(-189.94 -116.262)"/>
    </g>
    <g id="Group_702" data-name="Group 702" class="cls-14">
      <path id="Path_1191" data-name="Path 1191" class="cls-18" d="M223.8,171.529a1.587,1.587,0,0,0,1.8-1.348,1.838,1.838,0,0,0,0-.989,2.556,2.556,0,0,1,1.168,0c1.618.359,2.516,2.247,2.067,4.224a3.393,3.393,0,0,1-3.774,2.786c-1.618-.359-2.516-2.247-2.067-4.224l.27-.809a1.88,1.88,0,0,0,.539.359" transform="translate(-188.389 -116.262)"/>
    </g>
    <g id="Group_703" data-name="Group 703" class="cls-14">
      <path id="Path_1192" data-name="Path 1192" class="cls-19" d="M237.9,180.7l-4.493,7.459L229,180.7h8.9" transform="translate(-189.01 -117.435)"/>
    </g>
    <g id="Group_704" data-name="Group 704" class="cls-14">
      <path id="Path_1193" data-name="Path 1193" class="cls-15" d="M221.3,195.8a2.07,2.07,0,0,0,2.157,0c-.09,0-1.168,1.8-2.157,0" transform="translate(-188.23 -118.966)"/>
    </g>
    <g id="Group_705" data-name="Group 705" class="cls-14">
      <path id="Path_1194" data-name="Path 1194" class="cls-15" d="M226.3,195.8a2.07,2.07,0,0,0,2.157,0s-1.078,1.8-2.157,0" transform="translate(-188.737 -118.966)"/>
    </g>
    <g id="Group_706" data-name="Group 706" class="cls-14">
      <path id="Path_1195" data-name="Path 1195" class="cls-15" d="M231.4,195.8a2.07,2.07,0,0,0,2.157,0c-.09,0-1.168,1.8-2.157,0" transform="translate(-189.254 -118.966)"/>
    </g>
    <g id="Group_707" data-name="Group 707" class="cls-14">
      <path id="Path_1196" data-name="Path 1196" class="cls-15" d="M236.4,195.8a2.07,2.07,0,0,0,2.157,0s-1.078,1.8-2.157,0" transform="translate(-189.76 -118.966)"/>
    </g>
    <g id="Group_708" data-name="Group 708" class="cls-14">
      <path id="Path_1197" data-name="Path 1197" class="cls-15" d="M241.5,195.8a2.07,2.07,0,0,0,2.157,0c-.09,0-1.168,1.8-2.157,0" transform="translate(-190.277 -118.966)"/>
    </g>
    <g id="Group_709" data-name="Group 709" class="cls-14">
      <path id="Path_1198" data-name="Path 1198" class="cls-15" d="M246.5,195.8a2.07,2.07,0,0,0,2.157,0s-1.078,1.8-2.157,0" transform="translate(-190.784 -118.966)"/>
    </g>
    <g id="Group_710" data-name="Group 710" class="cls-14">
      <path id="Path_1199" data-name="Path 1199" class="cls-15" d="M223.6,199.4a2.07,2.07,0,0,0,2.157,0s-1.078,1.707-2.157,0" transform="translate(-188.463 -119.331)"/>
    </g>
    <g id="Group_711" data-name="Group 711" class="cls-14">
      <path id="Path_1200" data-name="Path 1200" class="cls-15" d="M228.7,199.4a2.07,2.07,0,0,0,2.157,0c-.09,0-1.168,1.707-2.157,0" transform="translate(-188.98 -119.331)"/>
    </g>
    <g id="Group_712" data-name="Group 712" class="cls-14">
      <path id="Path_1201" data-name="Path 1201" class="cls-15" d="M233.7,199.4a2.07,2.07,0,0,0,2.157,0s-1.078,1.707-2.157,0" transform="translate(-189.487 -119.331)"/>
    </g>
    <g id="Group_713" data-name="Group 713" class="cls-14">
      <path id="Path_1202" data-name="Path 1202" class="cls-15" d="M238.8,199.4a2.07,2.07,0,0,0,2.157,0c-.09,0-1.168,1.707-2.157,0" transform="translate(-190.004 -119.331)"/>
    </g>
    <g id="Group_714" data-name="Group 714" class="cls-14">
      <path id="Path_1203" data-name="Path 1203" class="cls-15" d="M243.8,199.4a2.07,2.07,0,0,0,2.157,0s-1.078,1.707-2.157,0" transform="translate(-190.51 -119.331)"/>
    </g>
    <g id="Group_715" data-name="Group 715" class="cls-14">
      <path id="Path_1204" data-name="Path 1204" class="cls-15" d="M225.4,202.7a2.07,2.07,0,0,0,2.157,0s-1.078,1.707-2.157,0" transform="translate(-188.645 -119.665)"/>
    </g>
    <g id="Group_716" data-name="Group 716" class="cls-14">
      <path id="Path_1205" data-name="Path 1205" class="cls-15" d="M230.5,202.7a2.07,2.07,0,0,0,2.157,0s-1.168,1.707-2.157,0" transform="translate(-189.162 -119.665)"/>
    </g>
    <g id="Group_717" data-name="Group 717" class="cls-14">
      <path id="Path_1206" data-name="Path 1206" class="cls-15" d="M235.5,202.7a2.07,2.07,0,0,0,2.157,0s-1.078,1.707-2.157,0" transform="translate(-189.669 -119.665)"/>
    </g>
    <g id="Group_718" data-name="Group 718" class="cls-14">
      <path id="Path_1207" data-name="Path 1207" class="cls-15" d="M240.6,202.7a2.07,2.07,0,0,0,2.157,0s-1.078,1.707-2.157,0" transform="translate(-190.186 -119.665)"/>
    </g>
    <g id="Group_719" data-name="Group 719" class="cls-14">
      <path id="Path_1208" data-name="Path 1208" class="cls-15" d="M227.6,205.6a2.07,2.07,0,0,0,2.157,0s-1.078,1.8-2.157,0" transform="translate(-188.868 -119.959)"/>
    </g>
    <g id="Group_720" data-name="Group 720" class="cls-14">
      <path id="Path_1209" data-name="Path 1209" class="cls-15" d="M232.7,205.6a2.07,2.07,0,0,0,2.157,0s-1.168,1.8-2.157,0" transform="translate(-189.385 -119.959)"/>
    </g>
    <g id="Group_721" data-name="Group 721" class="cls-14">
      <path id="Path_1210" data-name="Path 1210" class="cls-15" d="M237.7,205.6a2.07,2.07,0,0,0,2.157,0s-1.078,1.8-2.157,0" transform="translate(-189.892 -119.959)"/>
    </g>
    <g id="Group_722" data-name="Group 722" class="cls-14">
      <path id="Path_1211" data-name="Path 1211" class="cls-15" d="M229.6,208.4a2.07,2.07,0,0,0,2.157,0c-.09,0-1.168,1.8-2.157,0" transform="translate(-189.071 -120.243)"/>
    </g>
    <g id="Group_723" data-name="Group 723" class="cls-14">
      <path id="Path_1212" data-name="Path 1212" class="cls-15" d="M234.6,208.4a2.07,2.07,0,0,0,2.157,0s-1.078,1.8-2.157,0" transform="translate(-189.578 -120.243)"/>
    </g>
    <g id="Group_724" data-name="Group 724" class="cls-14">
      <path id="Path_1213" data-name="Path 1213" class="cls-15" d="M232.3,211.5a2.07,2.07,0,0,0,2.157,0c-.09,0-1.168,1.8-2.157,0" transform="translate(-189.345 -120.557)"/>
    </g>
    <g id="Group_725" data-name="Group 725" class="cls-14">
      <path id="Path_1214" data-name="Path 1214" class="cls-18" d="M229.851,148.59,197.5,134.211,230.3,121.9l32.8,12.311-33.25,14.378" transform="translate(-185.818 -111.476)"/>
    </g>
    <g id="Group_726" data-name="Group 726" class="cls-14">
      <path id="Path_1215" data-name="Path 1215" class="cls-20" d="M231.422,150.447,213,142.27v14.468a10.864,10.864,0,0,1,8.178-3.774c3.774,0,8.807,1.887,10.694,4.853,1.887-2.876,7.009-4.853,10.784-4.853a11.058,11.058,0,0,1,8.268,3.774V142l-19.5,8.447" transform="translate(-187.389 -113.513)"/>
    </g>
    <g id="Group_727" data-name="Group 727" class="cls-14">
      <path id="Path_1216" data-name="Path 1216" class="cls-19" d="M213.066,159.305V142.231l18.6-5.032-.27-.9-19.321,5.212v17.793c-.719.539-1.977,2.067-1.977,6.92h4.943c.09-4.853-1.258-6.38-1.977-6.92" transform="translate(-187.095 -112.935)"/>
    </g>
    <g id="Group_728" data-name="Group 728" class="cls-14">
      <path id="Path_1217" data-name="Path 1217" class="cls-15" d="M254.672,179.956c2.426-1.078,8.717-.09,10.245,4.853,2.516,8.088-7.009,19.59-15.816,17.613a7.725,7.725,0,0,0,1.887-8.717c-2.157-5.212-2.157-11.323,3.684-13.749" transform="translate(-191.048 -117.32)"/>
    </g>
    <g id="Group_729" data-name="Group 729" class="cls-14">
      <path id="Path_1218" data-name="Path 1218" class="cls-15" d="M211.3,180.161c-2.426-.989-8.717,0-10.245,4.943-2.426,8.088,7.189,19.5,16,17.434a7.748,7.748,0,0,1-1.977-8.627c2.067-5.3,2.067-11.323-3.774-13.749" transform="translate(-186.14 -117.346)"/>
    </g>
    <g id="Group_730" data-name="Group 730" class="cls-14">
      <path id="Path_1219" data-name="Path 1219" class="cls-19" d="M239.035,218.513a1.618,1.618,0,1,1-3.235,0v-2.7a1.618,1.618,0,1,1,3.235,0v2.7" transform="translate(-189.699 -120.831)"/>
    </g>
    <g id="Group_731" data-name="Group 731" class="cls-14">
      <path id="Path_1220" data-name="Path 1220" class="cls-19" d="M242.435,216.7a1.618,1.618,0,0,1-3.235,0v-2.786a1.618,1.618,0,0,1,3.235,0V216.7" transform="translate(-190.044 -120.638)"/>
    </g>
    <g id="Group_732" data-name="Group 732" class="cls-14">
      <path id="Path_1221" data-name="Path 1221" class="cls-19" d="M245.835,214.7a1.618,1.618,0,0,1-3.235,0v-2.786a1.618,1.618,0,1,1,3.235,0V214.7" transform="translate(-190.389 -120.435)"/>
    </g>
    <g id="Group_733" data-name="Group 733" class="cls-14">
      <path id="Path_1222" data-name="Path 1222" class="cls-19" d="M228.6,218.513a1.618,1.618,0,1,0,3.235,0v-2.7a1.618,1.618,0,1,0-3.235,0v2.7" transform="translate(-188.97 -120.831)"/>
    </g>
    <g id="Group_734" data-name="Group 734" class="cls-14">
      <path id="Path_1223" data-name="Path 1223" class="cls-19" d="M225.2,216.7a1.618,1.618,0,0,0,3.235,0v-2.786a1.618,1.618,0,0,0-3.235,0V216.7" transform="translate(-188.625 -120.638)"/>
    </g>
    <g id="Group_735" data-name="Group 735" class="cls-14">
      <path id="Path_1224" data-name="Path 1224" class="cls-19" d="M221.8,214.7a1.618,1.618,0,0,0,3.235,0v-2.786a1.618,1.618,0,1,0-3.235,0V214.7" transform="translate(-188.281 -120.435)"/>
    </g>
    <g id="Group_736" data-name="Group 736" class="cls-21">
      <rect id="Rectangle_303" data-name="Rectangle 303" class="cls-18" width="3.774" height="2.516" transform="translate(42.596 52.661)"/>
    </g>
    <g id="Group_737" data-name="Group 737" class="cls-14">
      <path id="Path_1225" data-name="Path 1225" class="cls-18" d="M261,170.358a1.285,1.285,0,0,1-1.258,1.258h-6.38a1.258,1.258,0,1,1,0-2.516h6.38A1.35,1.35,0,0,1,261,170.358" transform="translate(-191.352 -116.26)"/>
    </g>
    <g id="Group_738" data-name="Group 738" class="cls-14">
      <path id="Path_1226" data-name="Path 1226" class="cls-18" d="M214.9,170.358a1.285,1.285,0,0,1-1.258,1.258h-6.38a1.258,1.258,0,0,1,0-2.516h6.38a1.35,1.35,0,0,1,1.258,1.258" transform="translate(-186.679 -116.26)"/>
    </g>
  </g>
  <g id="Group_774" data-name="Group 774">
    <g id="Group_740" data-name="Group 740" class="cls-12">
      <text id="L" class="cls-11" transform="translate(240.907 184.501)"><tspan x="0" y="0">L</tspan></text>
    </g>
    <g id="Group_741" data-name="Group 741" class="cls-12">
      <text id="T" class="cls-11" transform="translate(267.589 184.501)"><tspan x="0" y="0">T</tspan></text>
    </g>
    <g id="Group_742" data-name="Group 742" class="cls-12">
      <path id="Path_1227" data-name="Path 1227" class="cls-9" d="M75.951,225.459v1.707a10.9,10.9,0,0,0-1.258-.449,6.184,6.184,0,0,0-1.168-.18,3.352,3.352,0,0,0-1.078.18.6.6,0,0,0-.359.629.777.777,0,0,0,.27.539,3.642,3.642,0,0,0,.9.27l.9.18a3.706,3.706,0,0,1,1.887.809,2.114,2.114,0,0,1,.539,1.528,2.387,2.387,0,0,1-.809,1.977,3.615,3.615,0,0,1-2.336.629,8.854,8.854,0,0,1-1.528-.18,9.821,9.821,0,0,1-1.528-.449v-1.707c.539.27.989.449,1.438.629a3.493,3.493,0,0,0,1.348.18,2.4,2.4,0,0,0,.989-.18.678.678,0,0,0,.359-.629.543.543,0,0,0-.27-.539,2.853,2.853,0,0,0-.989-.359l-.809-.18a3.365,3.365,0,0,1-1.707-.809,2.114,2.114,0,0,1-.539-1.528,2.23,2.23,0,0,1,.719-1.8,3.62,3.62,0,0,1,2.157-.629,6.8,6.8,0,0,1,1.348.09A4.564,4.564,0,0,1,75.951,225.459Z" transform="translate(-7.115 -22.815)"/>
    </g>
    <g id="Group_743" data-name="Group 743" class="cls-12">
      <path id="Path_1228" data-name="Path 1228" class="cls-9" d="M84.88,230.345v.539h-4.4a1.461,1.461,0,0,0,.449.989,2,2,0,0,0,1.168.359,7.05,7.05,0,0,0,1.258-.18,3.806,3.806,0,0,0,1.258-.539v1.438a7.487,7.487,0,0,1-1.348.359,6.8,6.8,0,0,1-1.348.09,3.681,3.681,0,0,1-2.516-.809,2.923,2.923,0,0,1-.9-2.336,2.732,2.732,0,0,1,.9-2.247,3.441,3.441,0,0,1,2.426-.809,3.132,3.132,0,0,1,2.247.809A3.211,3.211,0,0,1,84.88,230.345Zm-1.977-.629a1.154,1.154,0,0,0-.359-.9,1.139,1.139,0,0,0-.809-.359,1.518,1.518,0,0,0-.9.27,1.436,1.436,0,0,0-.449.9H82.9Z" transform="translate(-7.956 -23.028)"/>
    </g>
    <g id="Group_744" data-name="Group 744" class="cls-12">
      <path id="Path_1229" data-name="Path 1229" class="cls-9" d="M91.593,229a1.277,1.277,0,0,0-.539-.18c-.18,0-.359-.09-.539-.09a1.708,1.708,0,0,0-1.168.449,1.865,1.865,0,0,0-.359,1.348v2.7H87.1V227.29h1.887v.989a3.432,3.432,0,0,1,.809-.809,2.488,2.488,0,0,1,1.168-.27H91.5Z" transform="translate(-8.828 -23.028)"/>
    </g>
    <g id="Group_745" data-name="Group 745" class="cls-12">
      <path id="Path_1230" data-name="Path 1230" class="cls-9" d="M95.186,225.5v1.707h1.977v1.348H95.186v2.516a.76.76,0,0,0,.18.539,1.047,1.047,0,0,0,.629.18h.989v1.348H95.366a2.668,2.668,0,0,1-1.618-.449,2.314,2.314,0,0,1-.449-1.618v-2.516h-.9v-1.348h.9V225.5Z" transform="translate(-9.365 -22.856)"/>
    </g>
    <g id="Group_746" data-name="Group 746" class="cls-12">
      <path id="Path_1231" data-name="Path 1231" class="cls-9" d="M98.9,224.8h1.887v1.528H98.9Zm0,2.336h1.887v5.931H98.9Z" transform="translate(-10.024 -22.785)"/>
    </g>
    <g id="Group_747" data-name="Group 747" class="cls-12">
      <path id="Path_1232" data-name="Path 1232" class="cls-9" d="M106.883,224.8v1.258H105.8a.635.635,0,0,0-.719.719v.449H106.7v1.348h-1.618v4.583H103.2v-4.583h-.9v-1.348h.9v-.449a1.769,1.769,0,0,1,.539-1.438,2.777,2.777,0,0,1,1.707-.449h1.438Z" transform="translate(-10.369 -22.785)"/>
    </g>
    <g id="Group_748" data-name="Group 748" class="cls-12">
      <path id="Path_1233" data-name="Path 1233" class="cls-9" d="M108.3,224.8h1.887v1.528H108.3Zm0,2.336h1.887v5.931H108.3Z" transform="translate(-10.977 -22.785)"/>
    </g>
    <g id="Group_749" data-name="Group 749" class="cls-12">
      <path id="Path_1234" data-name="Path 1234" class="cls-9" d="M112.5,224.8h1.887v4.493l2.157-2.157h2.247l-2.876,2.7,3.145,3.235h-2.336l-2.336-2.516v2.516H112.5V224.8Z" transform="translate(-11.402 -22.785)"/>
    </g>
    <g id="Group_750" data-name="Group 750" class="cls-12">
      <path id="Path_1235" data-name="Path 1235" class="cls-9" d="M120.4,230.984V227.39h1.887v3.774a3.892,3.892,0,0,0,.09.449l.27.27a.673.673,0,0,0,.449.09,1.106,1.106,0,0,0,.9-.449,2.326,2.326,0,0,0,.359-1.258V227.3h1.887v5.931h-1.887v-.9a3.652,3.652,0,0,1-.9.809,2.135,2.135,0,0,1-1.078.27,1.743,1.743,0,0,1-1.528-.629A3.091,3.091,0,0,1,120.4,230.984Z" transform="translate(-12.203 -23.038)"/>
    </g>
    <g id="Group_751" data-name="Group 751" class="cls-12">
      <path id="Path_1236" data-name="Path 1236" class="cls-9" d="M131.825,227.2a3.6,3.6,0,0,1,2.426.809,3.192,3.192,0,0,1,.9,2.247,2.852,2.852,0,0,1-.9,2.247,3.3,3.3,0,0,1-2.426.809,3.6,3.6,0,0,1-2.426-.809,3.258,3.258,0,0,1,0-4.493A3.6,3.6,0,0,1,131.825,227.2Zm0,1.348a1.288,1.288,0,0,0-.989.449,1.865,1.865,0,0,0-.359,1.348,2.009,2.009,0,0,0,.359,1.348,1.054,1.054,0,0,0,.989.449,1.288,1.288,0,0,0,.989-.449,1.865,1.865,0,0,0,.359-1.348,2.009,2.009,0,0,0-.359-1.348A1.054,1.054,0,0,0,131.825,228.548Z" transform="translate(-13.024 -23.028)"/>
    </g>
    <g id="Group_752" data-name="Group 752" class="cls-12">
      <path id="Path_1237" data-name="Path 1237" class="cls-9" d="M139.386,225.5v1.707h1.977v1.348h-1.977v2.516a.76.76,0,0,0,.18.539,1.047,1.047,0,0,0,.629.18h.989v1.348h-1.618a2.668,2.668,0,0,1-1.618-.449,2.314,2.314,0,0,1-.449-1.618v-2.516h-.9v-1.348h.9V225.5Z" transform="translate(-13.845 -22.856)"/>
    </g>
    <g id="Group_753" data-name="Group 753" class="cls-12">
      <path id="Path_1238" data-name="Path 1238" class="cls-9" d="M148.621,229.9v3.415h-1.887v-.9a2.549,2.549,0,0,1-.9.809,2.488,2.488,0,0,1-1.168.27,2.267,2.267,0,0,1-1.528-.539,1.9,1.9,0,0,1-.539-1.438,1.8,1.8,0,0,1,.719-1.528,3.822,3.822,0,0,1,2.247-.449h1.078v-.18a.6.6,0,0,0-.359-.629,1.946,1.946,0,0,0-1.078-.18,4.747,4.747,0,0,0-1.168.09,3.22,3.22,0,0,0-.989.359v-1.438c.449-.09.809-.18,1.258-.27a5.932,5.932,0,0,1,1.258-.09,3.308,3.308,0,0,1,2.336.629A2.538,2.538,0,0,1,148.621,229.9Zm-2.876.719a2.255,2.255,0,0,0-.9.18.7.7,0,0,0-.27.629.543.543,0,0,0,.27.539,1.3,1.3,0,0,0,.629.18,1.154,1.154,0,0,0,.9-.359,1.227,1.227,0,0,0,.359-.989v-.18Z" transform="translate(-14.453 -23.028)"/>
    </g>
    <g id="Group_754" data-name="Group 754" class="cls-12">
      <path id="Path_1239" data-name="Path 1239" class="cls-9" d="M155.5,224.8h1.887v4.493l2.157-2.157h2.247l-2.876,2.7,3.145,3.235h-2.336l-2.336-2.516v2.516H155.5V224.8Z" transform="translate(-15.761 -22.785)"/>
    </g>
    <g id="Group_755" data-name="Group 755" class="cls-12">
      <path id="Path_1240" data-name="Path 1240" class="cls-9" d="M166.325,227.2a3.6,3.6,0,0,1,2.426.809,3.192,3.192,0,0,1,.9,2.247,2.852,2.852,0,0,1-.9,2.247,3.3,3.3,0,0,1-2.426.809,3.6,3.6,0,0,1-2.426-.809,3.258,3.258,0,0,1,0-4.493A3.441,3.441,0,0,1,166.325,227.2Zm0,1.348a1.288,1.288,0,0,0-.989.449,1.865,1.865,0,0,0-.359,1.348,2.009,2.009,0,0,0,.359,1.348,1.054,1.054,0,0,0,.989.449,1.288,1.288,0,0,0,.989-.449,1.865,1.865,0,0,0,.359-1.348,2.009,2.009,0,0,0-.359-1.348A1.145,1.145,0,0,0,166.325,228.548Z" transform="translate(-16.521 -23.028)"/>
    </g>
    <g id="Group_756" data-name="Group 756" class="cls-12">
      <path id="Path_1241" data-name="Path 1241" class="cls-9" d="M176.193,229a1.277,1.277,0,0,0-.539-.18c-.18,0-.359-.09-.539-.09a1.708,1.708,0,0,0-1.168.449,1.865,1.865,0,0,0-.359,1.348v2.7H171.7V227.29h1.887v.989a3.432,3.432,0,0,1,.809-.809,2.488,2.488,0,0,1,1.168-.27h.539Z" transform="translate(-17.403 -23.028)"/>
    </g>
    <g id="Group_757" data-name="Group 757" class="cls-12">
      <path id="Path_1242" data-name="Path 1242" class="cls-9" d="M183.68,230.345v.539h-4.4a1.461,1.461,0,0,0,.449.989,2,2,0,0,0,1.168.359,7.05,7.05,0,0,0,1.258-.18,3.806,3.806,0,0,0,1.258-.539v1.438a7.487,7.487,0,0,1-1.348.359,6.8,6.8,0,0,1-1.348.09,3.681,3.681,0,0,1-2.516-.809,2.923,2.923,0,0,1-.9-2.336,2.732,2.732,0,0,1,.9-2.247,3.441,3.441,0,0,1,2.426-.809,3.132,3.132,0,0,1,2.247.809A3.211,3.211,0,0,1,183.68,230.345Zm-1.977-.629a1.154,1.154,0,0,0-.359-.9,1.139,1.139,0,0,0-.809-.359,1.518,1.518,0,0,0-.9.27,1.436,1.436,0,0,0-.449.9H181.7Z" transform="translate(-17.97 -23.028)"/>
    </g>
    <g id="Group_758" data-name="Group 758" class="cls-12">
      <path id="Path_1243" data-name="Path 1243" class="cls-9" d="M187.887,232.412v3.145H186V227.38h1.887v.9a2.549,2.549,0,0,1,.9-.809,2.393,2.393,0,0,1,1.078-.27,2.1,2.1,0,0,1,1.8.9,3.727,3.727,0,0,1,.719,2.247,3.538,3.538,0,0,1-.719,2.247,2.346,2.346,0,0,1-1.8.9,1.917,1.917,0,0,1-1.078-.27A1.967,1.967,0,0,1,187.887,232.412Zm1.258-3.774a.992.992,0,0,0-.9.449,2.326,2.326,0,0,0-.359,1.258,1.757,1.757,0,0,0,.359,1.258,1.106,1.106,0,0,0,.9.449.992.992,0,0,0,.9-.449,2.326,2.326,0,0,0,.359-1.258,1.757,1.757,0,0,0-.359-1.258A1.248,1.248,0,0,0,189.145,228.638Z" transform="translate(-18.852 -23.028)"/>
    </g>
    <g id="Group_759" data-name="Group 759" class="cls-12">
      <path id="Path_1244" data-name="Path 1244" class="cls-9" d="M200.48,230.345v.539h-4.4a1.461,1.461,0,0,0,.449.989,2,2,0,0,0,1.168.359,7.05,7.05,0,0,0,1.258-.18,3.805,3.805,0,0,0,1.258-.539v1.438a7.487,7.487,0,0,1-1.348.359,6.8,6.8,0,0,1-1.348.09,3.681,3.681,0,0,1-2.516-.809,2.923,2.923,0,0,1-.9-2.336,2.732,2.732,0,0,1,.9-2.247,3.441,3.441,0,0,1,2.426-.809,3.132,3.132,0,0,1,2.247.809A3.211,3.211,0,0,1,200.48,230.345Zm-1.977-.629a1.154,1.154,0,0,0-.359-.9,1.139,1.139,0,0,0-.809-.359,1.518,1.518,0,0,0-.9.27,1.436,1.436,0,0,0-.449.9H198.5Z" transform="translate(-19.673 -23.028)"/>
    </g>
    <g id="Group_760" data-name="Group 760" class="cls-12">
      <path id="Path_1245" data-name="Path 1245" class="cls-9" d="M204.786,225.5v1.707h1.977v1.348h-1.977v2.516a.76.76,0,0,0,.18.539,1.047,1.047,0,0,0,.629.18h.989v1.348h-1.618a2.668,2.668,0,0,1-1.618-.449,2.314,2.314,0,0,1-.449-1.618v-2.516H202v-1.348h.9V225.5Z" transform="translate(-20.474 -22.856)"/>
    </g>
    <g id="Group_761" data-name="Group 761" class="cls-12">
      <path id="Path_1246" data-name="Path 1246" class="cls-9" d="M208.5,224.8h1.887v1.528H208.5Zm0,2.336h1.887v5.931H208.5Z" transform="translate(-21.132 -22.785)"/>
    </g>
    <g id="Group_762" data-name="Group 762" class="cls-12">
      <path id="Path_1247" data-name="Path 1247" class="cls-9" d="M214.686,225.5v1.707h1.977v1.348h-1.977v2.516a.76.76,0,0,0,.18.539,1.047,1.047,0,0,0,.629.18h.989v1.348h-1.618a2.668,2.668,0,0,1-1.618-.449,2.314,2.314,0,0,1-.449-1.618v-2.516h-.9v-1.348h.9V225.5Z" transform="translate(-21.477 -22.856)"/>
    </g>
    <g id="Group_763" data-name="Group 763" class="cls-12">
      <path id="Path_1248" data-name="Path 1248" class="cls-9" d="M221.225,227.2a3.6,3.6,0,0,1,2.426.809,3.258,3.258,0,0,1,0,4.493,3.441,3.441,0,0,1-2.426.809,3.6,3.6,0,0,1-2.426-.809,3.192,3.192,0,0,1-.9-2.247,2.852,2.852,0,0,1,.9-2.247A3.6,3.6,0,0,1,221.225,227.2Zm0,1.348a1.287,1.287,0,0,0-.989.449,2.425,2.425,0,0,0-.359,1.348,2.009,2.009,0,0,0,.359,1.348,1.16,1.16,0,0,0,.989.449,1.288,1.288,0,0,0,.989-.449,2.425,2.425,0,0,0,.359-1.348,2.009,2.009,0,0,0-.359-1.348A1.288,1.288,0,0,0,221.225,228.548Z" transform="translate(-22.085 -23.028)"/>
    </g>
    <g id="Group_764" data-name="Group 764" class="cls-12">
      <path id="Path_1249" data-name="Path 1249" class="cls-9" d="M231.093,229a1.277,1.277,0,0,0-.539-.18c-.18,0-.359-.09-.539-.09a1.708,1.708,0,0,0-1.168.449,1.865,1.865,0,0,0-.359,1.348v2.7H226.6V227.29h1.887v.989a3.432,3.432,0,0,1,.809-.809,2.248,2.248,0,0,1,1.168-.27H231Z" transform="translate(-22.967 -23.028)"/>
    </g>
    <g id="Group_765" data-name="Group 765" class="cls-12">
      <path id="Path_1250" data-name="Path 1250" class="cls-9" d="M232.7,224.8h1.887v1.528H232.7Zm0,2.336h1.887v5.931H232.7Z" transform="translate(-23.585 -22.785)"/>
    </g>
    <g id="Group_766" data-name="Group 766" class="cls-12">
      <path id="Path_1251" data-name="Path 1251" class="cls-9" d="M236.8,230.984V227.39h1.887v3.774a3.892,3.892,0,0,0,.09.449l.27.27a.673.673,0,0,0,.449.09,1.106,1.106,0,0,0,.9-.449,1.757,1.757,0,0,0,.359-1.258V227.3h1.887v5.931h-1.887v-.9a3.652,3.652,0,0,1-.9.809,2.135,2.135,0,0,1-1.078.27,1.743,1.743,0,0,1-1.528-.629A3.091,3.091,0,0,1,236.8,230.984Zm5.212,2.336h.719a5.323,5.323,0,0,1-.359.539.54.54,0,0,0-.09.359.467.467,0,0,0,.18.359.673.673,0,0,0,.449.09h.449c.18,0,.27-.09.449-.09v.809c-.18,0-.359.09-.539.09h-.449a1.193,1.193,0,0,1-.9-.27.934.934,0,0,1-.359-.719,1.277,1.277,0,0,1,.18-.539C241.653,233.77,241.832,233.5,242.012,233.321Z" transform="translate(-24.001 -23.038)"/>
    </g>
    <g id="Group_767" data-name="Group 767" class="cls-12">
      <path id="Path_1252" data-name="Path 1252" class="cls-9" d="M255.092,228.378a2.549,2.549,0,0,1,.9-.809,2.393,2.393,0,0,1,1.078-.27,1.743,1.743,0,0,1,1.528.629,2.683,2.683,0,0,1,.539,1.8v3.595h-1.887v-3.415a1.933,1.933,0,0,0-.18-.9.7.7,0,0,0-.629-.27.944.944,0,0,0-.809.449,2.38,2.38,0,0,0-.27,1.258v2.876h-1.887v-3.055a3.333,3.333,0,0,0-.18-1.258c-.09-.18-.27-.27-.629-.27a.944.944,0,0,0-.809.449,2.38,2.38,0,0,0-.27,1.258v2.876H249.7V227.39h1.887v.9a1.946,1.946,0,0,1,.809-.719,1.811,1.811,0,0,1,.989-.27,1.916,1.916,0,0,1,1.078.27A1.434,1.434,0,0,1,255.092,228.378Z" transform="translate(-25.308 -23.038)"/>
    </g>
    <g id="Group_768" data-name="Group 768" class="cls-12">
      <path id="Path_1253" data-name="Path 1253" class="cls-9" d="M264.925,227.2a3.6,3.6,0,0,1,2.426.809,3.258,3.258,0,0,1,0,4.493,3.441,3.441,0,0,1-2.426.809,3.6,3.6,0,0,1-2.426-.809,3.192,3.192,0,0,1-.9-2.247,2.852,2.852,0,0,1,.9-2.247A3.6,3.6,0,0,1,264.925,227.2Zm0,1.348a1.287,1.287,0,0,0-.988.449,2.425,2.425,0,0,0-.359,1.348,2.009,2.009,0,0,0,.359,1.348,1.16,1.16,0,0,0,.988.449,1.288,1.288,0,0,0,.989-.449,2.425,2.425,0,0,0,.359-1.348,2.009,2.009,0,0,0-.359-1.348A1.16,1.16,0,0,0,264.925,228.548Z" transform="translate(-26.514 -23.028)"/>
    </g>
    <g id="Group_769" data-name="Group 769" class="cls-12">
      <path id="Path_1254" data-name="Path 1254" class="cls-9" d="M270.5,224.8h1.887v4.493l2.157-2.157h2.247l-2.876,2.7,3.145,3.235h-2.336l-2.336-2.516v2.516H270.5V224.8Z" transform="translate(-27.416 -22.785)"/>
    </g>
    <g id="Group_770" data-name="Group 770" class="cls-12">
      <path id="Path_1255" data-name="Path 1255" class="cls-9" d="M277.7,227.4h1.887l1.618,4.044,1.348-4.044h1.887l-2.516,6.47a3.2,3.2,0,0,1-.9,1.348,2.166,2.166,0,0,1-1.348.359H278.6V234.32h.629a1.392,1.392,0,0,0,.719-.18.825.825,0,0,0,.359-.539l.09-.18Z" transform="translate(-28.146 -23.048)"/>
    </g>
    <g id="Group_771" data-name="Group 771" class="cls-12">
      <path id="Path_1256" data-name="Path 1256" class="cls-9" d="M286.4,224.8h1.887v4.493l2.157-2.157h2.247l-2.876,2.7,3.145,3.235h-2.336l-2.336-2.516v2.516H286.4V224.8Z" transform="translate(-29.028 -22.785)"/>
    </g>
    <g id="Group_772" data-name="Group 772" class="cls-12">
      <path id="Path_1257" data-name="Path 1257" class="cls-9" d="M294.4,224.8h1.887v8.268H294.4Z" transform="translate(-29.839 -22.785)"/>
    </g>
    <g id="Group_773" data-name="Group 773" class="cls-12">
      <path id="Path_1258" data-name="Path 1258" class="cls-9" d="M304.021,229.9v3.415h-1.887v-.9a2.549,2.549,0,0,1-.9.809,2.488,2.488,0,0,1-1.168.27,2.267,2.267,0,0,1-1.528-.539,1.9,1.9,0,0,1-.539-1.438,1.8,1.8,0,0,1,.719-1.528,3.822,3.822,0,0,1,2.247-.449h1.078v-.18a.6.6,0,0,0-.359-.629,1.946,1.946,0,0,0-1.078-.18,4.747,4.747,0,0,0-1.168.09,3.22,3.22,0,0,0-.989.359v-1.438c.449-.09.809-.18,1.258-.27a5.932,5.932,0,0,1,1.258-.09,3.309,3.309,0,0,1,2.336.629A2.538,2.538,0,0,1,304.021,229.9Zm-2.876.719a2.255,2.255,0,0,0-.9.18.7.7,0,0,0-.27.629.543.543,0,0,0,.27.539.758.758,0,0,0,.629.18,1.154,1.154,0,0,0,.9-.359,1.228,1.228,0,0,0,.359-.989v-.18Z" transform="translate(-30.204 -23.028)"/>
    </g>
  </g>
</svg>
